<?xml version="1.0" encoding="utf-8"?>
<!-- Generator: Adobe Illustrator 16.0.0, SVG Export Plug-In . SVG Version: 6.00 Build 0)  -->
<!DOCTYPE svg PUBLIC "-//W3C//DTD SVG 1.1//EN" "http://www.w3.org/Graphics/SVG/1.1/DTD/svg11.dtd">
<svg version="1.1" id="Capa_1" xmlns="http://www.w3.org/2000/svg" xmlns:xlink="http://www.w3.org/1999/xlink" x="0px" y="0px"
	 width="500px" height="500px" viewBox="0 0 500 500" enable-background="new 0 0 500 500" xml:space="preserve">
<path fill="none" stroke="#211915" stroke-miterlimit="10" d="M157.494,303.242c-0.014-0.022-0.027-0.045-0.041-0.067
	C157.467,303.197,157.48,303.22,157.494,303.242z"/>
<path fill="none" stroke="#211915" stroke-miterlimit="10" d="M198.939,320.973c-0.024-0.023-0.045-0.047-0.074-0.069
	C198.895,320.926,198.915,320.949,198.939,320.973z"/>
<path fill="none" stroke="#211915" stroke-miterlimit="10" d="M157.864,303.862c-0.024-0.04-0.047-0.079-0.071-0.12
	C157.817,303.783,157.84,303.822,157.864,303.862z"/>
<path fill="none" stroke="#211915" stroke-miterlimit="10" d="M159.047,305.872c-0.016-0.028-0.035-0.061-0.053-0.091
	C159.012,305.812,159.031,305.844,159.047,305.872z"/>
<path fill="none" stroke="#211915" stroke-miterlimit="10" d="M199.104,321.241c-0.008-0.028-0.014-0.058-0.026-0.085
	C199.091,321.184,199.097,321.213,199.104,321.241z"/>
<path fill="none" stroke="#211915" stroke-miterlimit="10" d="M207.047,326.483c-0.002,0.195,0.017,0.408,0.072,0.658
	C207.063,326.892,207.047,326.681,207.047,326.483z"/>
<path fill="none" stroke="#211915" stroke-miterlimit="10" d="M199,322.12c0.007-0.078,0.024-0.159,0.045-0.24
	C199.024,321.961,199.007,322.042,199,322.12z"/>
<path fill="none" stroke="#211915" stroke-miterlimit="10" d="M199.113,321.573c0-0.002,0.001-0.003,0.001-0.005
	C199.114,321.57,199.113,321.571,199.113,321.573z"/>
<path fill="none" stroke="#211915" stroke-miterlimit="10" d="M199.126,321.391c-0.001-0.033-0.001-0.067-0.007-0.101
	C199.125,321.323,199.125,321.356,199.126,321.391z"/>
<path fill="none" stroke="#211915" stroke-miterlimit="10" d="M207.045,326.366c0.008-0.158,0.041-0.293,0.082-0.422
	C207.085,326.072,207.054,326.21,207.045,326.366z"/>
<path fill="none" stroke="#211915" stroke-miterlimit="10" d="M199.129,321.428c-0.001,0.026-0.006,0.052-0.008,0.077
	C199.124,321.479,199.128,321.454,199.129,321.428z"/>
<path fill="none" stroke="#211915" stroke-miterlimit="10" d="M198.674,320.787c0.039,0.02,0.066,0.04,0.1,0.061
	c-0.033-0.021-0.06-0.04-0.098-0.06C198.676,320.788,198.675,320.787,198.674,320.787z"/>
<path fill="none" stroke="#211915" stroke-miterlimit="10" d="M198.996,321.026c0.02,0.023,0.031,0.048,0.045,0.071
	C199.027,321.074,199.016,321.05,198.996,321.026z"/>
<path fill="none" stroke="#211915" stroke-miterlimit="10" d="M199,322.124c-0.02,0.262,0.082,0.492,0.619,0.643
	C199.083,322.616,198.98,322.386,199,322.124z"/>
<path fill="none" stroke="#211915" stroke-miterlimit="10" d="M199.114,321.568c0.004-0.021,0.005-0.042,0.007-0.063
	C199.119,321.526,199.118,321.547,199.114,321.568z"/>
<path fill="none" stroke="#211915" stroke-miterlimit="10" d="M199.119,321.29c-0.002-0.017-0.01-0.032-0.015-0.049
	C199.109,321.258,199.116,321.273,199.119,321.29z"/>
<path fill="none" stroke="#211915" stroke-miterlimit="10" d="M189.494,311.517c-1.188-1.188-5.25-4.25-6.313-5.313
	s-2,0.688-3.25-0.563s-2.375-4-3.25-4s-2,0.813-3.25,0.813s-2.313,1.813-3.719,2.594s-1.031,1.344-2.344,1.344s-1.25-0.5-2.125-0.5
	s-1.969,1.344-2.594,0.469s-1.719-0.844-3.406-0.156c-0.979,0.979-2.083,2.126-3.469,2.126s-0.447,2.916-0.447,3.75
	c0,4.084,6.167,0.666,6.167,3.083s-4.583,2.334-4.583,6s5,7.834,7.667,8.834s6.249,0.083,6.249,4.833s6.584,6.75,6.584,8.583
	s-1.334,2.584-4.25,2.584s-5.417-0.834-7.667,0.666s-3.167,3.167-5.75,4.833s-33.084,15.667-33.084,15.667s-21.833-8.417-26.166-9
	c-1.917,3.916-4.25,3.916-4.25,5.416s5.124,2.375,5.124,5.625s-1.373,5-5.124,5s-2.501,3-1.501,3s0.438,2.313,1.625,3.5
	s-1.75,3.375-1.75,4.5s1.375,3.375,5.75,4.75s2.813,3.563,2.125,4.25s-0.188,2.688-1.125,3.625s-2,3.625,0.5,4.375
	s1.875-1.625,3.5,0s7.625,11.25,7.625,11.25s0,6.75,0,9.25s2,3.125,2.688,5.938s-1.156,5.656,0,6.813s4.438,2.125,4.438,4.625
	s1.375,2.938,1.375,4.125s-1.063,1.438-1.063,2.875s2.875,3.188,2.875,6.563s-1.5,2.625-1.5,6.125s4.375,4.375,5.438,4.375
	c9.063,0,10.875-1.438,14-1.438s2.813-2.688,3.938-3.813s2.625-2,2.625-4.375s1.469-1.656,3.438-3.625s2.875-0.5,3.813-1.438
	s0.188-5.875,1.25-6.938s1.75-0.438,3.188-0.438s3.688-2.313,6.313-2.313s2.375-1.813,3.25-1.813s1.188-2.25,1.188-4.063
	s0.875-2.031,0.875-3.563s-0.5-2.375,1.188-1.75s2.313,1.938,3.5,1.938s0.688,2.063,1.938,2.063s2.563-0.063,3.188,1.625
	s2.875,2.625,3.563,4.25c1.938,0,19.667-0.708,19.667-0.708c0-2.417-5.166-8.416-5.166-10.25s1.25-3,2.187-4.833s0,0.042,0-3.396
	c-4.125-1.625-7.063-4.938-7.063-9.188s1-3.625,1-8.875s4.313-9,4.313-13.188s-2.125-6.125-2.125-9.75s2-1.563,2-5.563
	c0-2,1.813-1.625,3.25-3.063c1.188-1.188,4.219,0.656,5.625-0.75c2.281-2.281,3.5-0.813,4.406-2.156s2.969-3.594,3.906-4.531
	s-2.875-3.5-2.875-6.5s-1.188-5.625-3.75-5.625s-4.688,1.375-6.938,0s-4.188-1.938-5.75-3.5s-0.219-2.406-1.25-3.438
	s-3.063-1.125-3.063-3.563c0-1.563,1.438-1.313,1.438-3.688c0-2.563-0.75-1-0.75-3.125c0-3,3.688-1.75,1.688-3.75
	s-4.719,1.844-5.625,0.938s-0.064-1.188,0.313-1.565s0.781-2.466-0.188-3.435s0.563-3.625-0.875-4.25s-2.438-1.688-1.375-2.75
	s2.531,0.156,3.563,1.188s3.156-0.094,3.688,0.438s1.688,0.5,3.563,1.063c0.148,0.045,0.266,0.094,0.367,0.146
	C195.48,318.433,190.682,312.704,189.494,311.517z"/>
<path fill="none" stroke="#211915" stroke-miterlimit="10" d="M207.186,325.774c-0.024,0.053-0.041,0.112-0.059,0.17
	C207.145,325.887,207.161,325.827,207.186,325.774z"/>
<path fill="none" stroke="#211915" stroke-miterlimit="10" d="M207.047,326.483c0-0.038-0.004-0.081-0.002-0.117
	C207.043,326.403,207.047,326.445,207.047,326.483z"/>
<path fill="none" stroke="#211915" stroke-miterlimit="10" d="M199.045,321.88c0.023-0.102,0.052-0.204,0.068-0.307
	C199.097,321.676,199.068,321.778,199.045,321.88z"/>
<path fill="none" stroke="#211915" stroke-miterlimit="10" d="M199,322.124c0-0.001,0-0.003,0-0.004
	C199,322.121,199,322.123,199,322.124z"/>
<path fill="none" stroke="#211915" stroke-miterlimit="10" d="M198.939,320.973c0.018,0.018,0.041,0.035,0.057,0.054
	C198.98,321.008,198.957,320.99,198.939,320.973z"/>
<path fill="none" stroke="#211915" stroke-miterlimit="10" d="M157.793,303.742c-0.098-0.162-0.197-0.329-0.299-0.5
	C157.596,303.413,157.696,303.58,157.793,303.742z"/>
<path fill="none" stroke="#211915" stroke-miterlimit="10" d="M157.118,302.621c0.114,0.188,0.226,0.372,0.335,0.554
	C157.344,302.993,157.233,302.811,157.118,302.621L157.118,302.621z"/>
<path fill="none" stroke="#211915" stroke-miterlimit="10" d="M158.994,305.781c-0.277-0.472-0.667-1.141-1.13-1.919
	C158.328,304.644,158.717,305.309,158.994,305.781z"/>
<path fill="none" stroke="#211915" stroke-miterlimit="10" d="M199.126,321.391c0.001,0.013,0.003,0.024,0.003,0.037
	C199.129,321.415,199.127,321.403,199.126,321.391z"/>
<path fill="none" stroke="#211915" stroke-miterlimit="10" d="M199.078,321.156c-0.009-0.021-0.025-0.039-0.037-0.059
	C199.053,321.117,199.069,321.136,199.078,321.156z"/>
<path fill="none" stroke="#211915" stroke-miterlimit="10" d="M198.865,320.903c-0.026-0.02-0.062-0.037-0.092-0.056
	C198.804,320.866,198.839,320.884,198.865,320.903z"/>
<path fill="none" stroke="#211915" stroke-miterlimit="10" d="M159.244,306.204c-0.056-0.093-0.123-0.205-0.197-0.332
	C159.121,305.997,159.189,306.112,159.244,306.204z"/>
<path fill="none" stroke="#211915" stroke-miterlimit="10" d="M240.077,403.037c-0.854-0.854-1.916-3.041-4.25-3.041
	s-1.729,1.604-2.646,3.271s-0.438,2.979-1.104,3.646s-0.896,0.292-3.271,0.292s-0.188-1.75-5.5-1.75
	c-1.489,0-2.362-2.438-3.672-3.797c-0.504-0.523-1.071-0.891-1.766-0.891c-2.5,0-0.875,5.188-3.813,5.188s-2.563-3.063-5.188-3.063
	s-0.563-1.375-2.125-1.375s-3-0.75-3,1.375s-0.75,2.75-0.75,5.375s-1.438,7-1.813,11c0,3.438,0.937,1.563,0,3.396
	s-2.187,2.999-2.187,4.833s5.166,7.833,5.166,10.25c2.334,0,3.614-0.386,4.771,0.771s2.813-0.688,4.375,0.875s2.625,1.313,4.5,1.313
	s1.656,1.281,2.688,2.313s0.188,2,1.25,4.563s-0.063,3.375,2.188,4.375c1.129,0.894,0.938,2.5,0.938,4.063s1.313,1.938,2.125,3.375
	s0.625,3.25,1.375,3.25s0.875-0.688,0.875-3.25s0.938-1.813,0.938-4.375s1-3.5,2.063-4.563s2.25-1.5,2.25-3.813
	s1.25-2.438,2.813-5.938s1.063-5.688,4.625-5.688s2.188,1.688,4,1.688s0.688-1.75,2.438-1.75s23.75,0.188,24.938,0.188
	s0.063,2.625,0.563,3.75s1.813,1.375,2.5,2.063s0.938,1.938,2.063,1.938s11.979-39.729,11.979-39.729
	S242.577,403.037,240.077,403.037z"/>
<path fill="none" stroke="#211915" stroke-miterlimit="10" d="M170.828,334.83c0-4.75-3.582-3.833-6.249-4.833
	s-7.667-5.168-7.667-8.834s4.583-3.583,4.583-6s-6.167,1.001-6.167-3.083c0-0.834-0.938-3.75,0.447-3.75s2.49-1.147,3.469-2.126
	c-0.362-0.604-1.15-1.979-2.126-3.583c-1.548-2.548-3.571-5.676-5.124-7.229c-2.531-2.531-3.688-1.438-3.916-2.937
	c-1.5,0-3.333-5-4.5-5s-1.917,0.375-2.876,0.375s-3.832,2.917-9.499,6.667s-6.916,3.666-6.916,4.541s1.125,0.833,1.125,1.833
	s-0.292,2.209-2.167,2.209s-6.583-5.208-11.042-6.417s-8.25-0.416-9.875-0.416s-7.313,7.563-8.708,8.958s-3.708,2.708-5.625,2.708
	s-1.833,1.583-4.042,1.583c0,1.834-2.375,1.834-2.375,3.917s1.917,1.667,1.917,3.25s-0.813,3.896,0.458,5.167s1.209,4.25,1.209,7
	s1.416,0.416,1.416,3.333s1.5-0.167,1.5,3.333s-1.416,1.334-1.416,3.084s2.083,1,2.083,2.5s1.083,2.334,2.5,2
	s1.583,2.083,3.333,2.583s2.167,0.584,2.167,2.084s3.082,1.248,4.041,2.207s3.209,1.958,3.209,3.042s-2.166,1.667-3.5,5.167
	c4.333,0.583,26.166,9,26.166,9s30.501-14.001,33.084-15.667s3.5-3.333,5.75-4.833s4.751-0.666,7.667-0.666s4.25-0.751,4.25-2.584
	S170.828,339.58,170.828,334.83z"/>
<path fill="none" stroke="#211915" stroke-miterlimit="10" d="M198.865,320.903c-0.02-0.015-0.046-0.028-0.07-0.042
	c0.078,0.05,0.146,0.103,0.192,0.157c-0.015-0.016-0.033-0.031-0.048-0.046C198.915,320.949,198.895,320.926,198.865,320.903z"/>
<path fill="none" stroke="#211915" stroke-miterlimit="10" d="M199.129,321.428c0-0.008-0.001-0.016-0.002-0.023
	c0,0.041-0.003,0.083-0.008,0.124c0-0.008,0.001-0.016,0.002-0.023C199.124,321.479,199.128,321.454,199.129,321.428z"/>
<path fill="none" stroke="#211915" stroke-miterlimit="10" d="M199.1,321.224c0.002,0.01,0.006,0.02,0.009,0.03
	c-0.001-0.005-0.003-0.009-0.004-0.013C199.104,321.235,199.101,321.229,199.1,321.224z"/>
<path fill="none" stroke="#211915" stroke-miterlimit="10" d="M199.055,321.834c-0.023,0.093-0.044,0.186-0.053,0.274
	c0.008-0.074,0.023-0.151,0.043-0.229C199.049,321.864,199.052,321.849,199.055,321.834z"/>
<path fill="none" stroke="#211915" stroke-miterlimit="10" d="M199.619,322.767c-0.121-0.034-0.213-0.073-0.293-0.114
	C199.406,322.693,199.498,322.732,199.619,322.767z"/>
<path fill="none" stroke="#211915" stroke-miterlimit="10" d="M199.012,322.29c-0.01-0.051-0.015-0.104-0.012-0.158
	C198.997,322.187,199.002,322.239,199.012,322.29z"/>
<path fill="none" stroke="#211915" stroke-miterlimit="10" d="M199.271,322.622c-0.07-0.042-0.129-0.086-0.169-0.134
	C199.143,322.536,199.201,322.58,199.271,322.622z"/>
<path fill="none" stroke="#211915" stroke-miterlimit="10" d="M199.102,322.487c-0.041-0.05-0.064-0.103-0.08-0.157
	C199.037,322.385,199.061,322.438,199.102,322.487z"/>
<path fill="none" stroke="#211915" stroke-miterlimit="10" d="M260.495,386.08c-1.834,0-1.345-2.782-2.438-3.876
	s-0.625,1.375-2.75,1.375s0.313,1.625-2.563,1.625c-1.063,0-1.969,1.219-3.5-0.313s-1.125-3.75-1.125-12.875
	c0-2.188-1.25-2-1.25-3.563s0.125-11.125,0.125-13.938s-1.125-4.688-1.125-7.125s-0.188-5,0.688-5s0.906-1.969,0.375-2.5
	s-3.406-1.094-4.813,0.313s-0.125,3.438-2.375,3.438s-0.656-2.031-2.938-4.313s-2-0.438-3.875-3.5s-3.313-3.563-3.313-5.188
	s-0.25-2.5-0.25-2.5c-1.75,0-1.313-1.875-2.813-1.875s-3.063,1.875-4.25,1.875s-2.844-2.844-4.188-4.188s-2.969-0.594-3.688-1.313
	c-0.531-0.531-1.814-0.683-3.08-0.096c-0.445,0.207-0.888,0.501-1.295,0.908c-1.145,1.145-2.448,1.391-2.871,2.32
	c-0.024,0.053-0.041,0.112-0.059,0.17c-0.042,0.128-0.073,0.266-0.082,0.422c-0.002,0.037,0.002,0.079,0.002,0.117
	c-0.002,0.195,0.017,0.408,0.072,0.658c0.5,2.25-1.438,0.938-2.313,0.063s-3,0.125-3.438-1.25s-0.188-2.75-1.75-3.188
	c-0.121-0.034-0.213-0.073-0.293-0.114c-0.02-0.01-0.037-0.021-0.055-0.03c-0.07-0.042-0.129-0.086-0.169-0.134
	c-0.001-0.001-0.001-0.001-0.001-0.001c-0.041-0.05-0.064-0.103-0.08-0.157c-0.004-0.014-0.008-0.026-0.01-0.04
	c-0.01-0.051-0.015-0.104-0.012-0.158c0.001-0.002,0-0.005,0-0.008c0-0.001,0-0.003,0-0.004c0-0.004,0.002-0.008,0.002-0.012
	c0.009-0.089,0.029-0.182,0.053-0.274c0.021-0.087,0.045-0.174,0.059-0.261c0-0.002,0.001-0.003,0.001-0.005
	c0.003-0.014,0.003-0.026,0.005-0.04c0.005-0.041,0.008-0.083,0.008-0.124c0-0.004,0-0.009-0.001-0.014
	c-0.001-0.033-0.001-0.067-0.007-0.101c-0.002-0.013-0.007-0.024-0.011-0.036c-0.003-0.011-0.007-0.021-0.009-0.03
	c-0.006-0.022-0.012-0.046-0.021-0.067c-0.009-0.021-0.025-0.039-0.037-0.059c-0.014-0.023-0.025-0.048-0.045-0.071
	c-0.002-0.003-0.006-0.006-0.009-0.008c-0.047-0.055-0.114-0.107-0.192-0.157c-0.008-0.005-0.014-0.009-0.021-0.014
	c-0.033-0.021-0.06-0.04-0.098-0.06c0,0-0.001-0.001-0.002-0.001c-0.102-0.052-0.219-0.101-0.367-0.146
	c-1.875-0.563-3.031-0.531-3.563-1.063s-2.656,0.594-3.688-0.438s-2.5-2.25-3.563-1.188s-0.063,2.125,1.375,2.75
	s-0.094,3.281,0.875,4.25s0.564,3.058,0.188,3.435s-1.219,0.659-0.313,1.565s3.625-2.938,5.625-0.938s-1.688,0.75-1.688,3.75
	c0,2.125,0.75,0.563,0.75,3.125c0,2.375-1.438,2.125-1.438,3.688c0,2.438,2.031,2.531,3.063,3.563s-0.313,1.875,1.25,3.438
	s3.5,2.125,5.75,3.5s4.375,0,6.938,0s3.75,2.625,3.75,5.625s3.813,5.563,2.875,6.5s-3,3.188-3.906,4.531s-2.125-0.125-4.406,2.156
	c-1.406,1.406-4.438-0.438-5.625,0.75c-1.438,1.438-3.25,1.063-3.25,3.063c0,4-2,1.938-2,5.563s2.125,5.563,2.125,9.75
	s-4.313,7.938-4.313,13.188s-1,4.625-1,8.875s2.938,7.563,7.063,9.188c0.375-4,1.813-8.375,1.813-11s0.75-3.25,0.75-5.375
	s1.438-1.375,3-1.375s-0.5,1.375,2.125,1.375s2.25,3.063,5.188,3.063s1.313-5.188,3.813-5.188c0.694,0,1.262,0.367,1.766,0.891
	c1.31,1.358,2.183,3.797,3.672,3.797c5.313,0,3.125,1.75,5.5,1.75s2.604,0.375,3.271-0.292s0.188-1.979,1.104-3.646
	s0.312-3.271,2.646-3.271s3.396,2.187,4.25,3.041c2.5,0,50.334,0.126,50.334,0.126V388.58l1.5-2.5H260.495z"/>
<path fill="none" stroke="#211915" stroke-miterlimit="10" d="M199.103,322.488C199.102,322.487,199.102,322.487,199.103,322.488
	C199.102,322.487,199.102,322.487,199.103,322.488z"/>
<path fill="none" stroke="#211915" stroke-miterlimit="10" d="M199.021,322.33c-0.004-0.014-0.008-0.026-0.01-0.04
	C199.014,322.304,199.018,322.316,199.021,322.33z"/>
<path fill="none" stroke="#211915" stroke-miterlimit="10" d="M199.002,322.108c0,0.004-0.002,0.008-0.002,0.012
	c0,0.001,0,0.003,0,0.004c0,0.003,0.001,0.006,0,0.008C199.001,322.124,199.002,322.116,199.002,322.108z"/>
<path fill="none" stroke="#211915" stroke-miterlimit="10" d="M199.326,322.652c-0.02-0.01-0.037-0.021-0.055-0.03
	C199.289,322.632,199.307,322.643,199.326,322.652z"/>
<path fill="none" stroke="#211915" stroke-miterlimit="10" d="M207.186,325.773c-0.154,0.34-0.2,0.766-0.066,1.368
	c-0.056-0.25-0.074-0.463-0.072-0.658c0-0.038-0.004-0.08-0.002-0.117c0.009-0.156,0.04-0.294,0.082-0.422
	C207.145,325.887,207.161,325.827,207.186,325.773c0.423-0.929,1.727-1.175,2.871-2.319
	C208.912,324.599,207.609,324.844,207.186,325.773z"/>
<path fill="none" stroke="#211915" stroke-miterlimit="10" d="M198.987,321.019c0.003,0.002,0.007,0.005,0.009,0.008
	c0.02,0.023,0.031,0.048,0.045,0.071c0.012,0.02,0.028,0.038,0.037,0.059c0.01,0.021,0.016,0.045,0.021,0.067
	C199.078,321.153,199.044,321.084,198.987,321.019z"/>
<path fill="none" stroke="#211915" stroke-miterlimit="10" d="M199.114,321.568c0,0.002-0.001,0.003-0.001,0.005
	c-0.014,0.087-0.037,0.174-0.059,0.261c0.025-0.102,0.051-0.203,0.064-0.306C199.117,321.542,199.117,321.555,199.114,321.568z"/>
<path fill="none" stroke="#211915" stroke-miterlimit="10" d="M198.773,320.848c0.008,0.005,0.014,0.009,0.021,0.014
	c-0.037-0.024-0.072-0.05-0.119-0.073C198.714,320.808,198.74,320.827,198.773,320.848z"/>
<path fill="none" stroke="#211915" stroke-miterlimit="10" d="M199.119,321.29c0.006,0.033,0.006,0.067,0.007,0.101
	c0.001,0.005,0.001,0.01,0.001,0.014c0-0.051-0.007-0.101-0.019-0.15C199.112,321.266,199.117,321.277,199.119,321.29z"/>
<path fill="none" stroke="#211915" stroke-miterlimit="10" d="M192.287,63.288c0,0.833-0.438,0.563-1.042,1.167
	s-0.916,0.833-1.833,0.833s-1.792,2.167-2.917,2.167s-1.854-0.313-2.5,0.333s0.563,2.354-0.208,3.125s-0.668,1.667-2.084,1.667
	s-1.053-0.969-1.678-0.969s-1.156-0.375-1.656,0.125s0.406,1.184,0.406,1.779s1.063,0.096,1.063,1.283s-0.781,1.438-1.531,0.688
	c-0.5-0.5-1.375-0.781-2.156-0.781s-1.656,0.281-1.656,0.875s-1.156,0.313-1.156,0.875s0.656,0.656,0.656,1.344
	s-0.719,1.219-0.719,2.094s-1.063,0.906-1.063,1.563s-0.656,1.344-0.656,2.344s-0.5,1.281-0.906,1.281s-1.031-0.125-1.031,2.063
	c0,0.938-0.625,0.781-0.625,1.281s-1.188,0.406-1.188,1.094s-0.688,1.531,0.219,1.531s0.656,1.781-0.906,1.781
	c-0.594,0-1-0.063-1,0.594c0,0.906-0.844,0.813-1.594,0.813s-1.094,0.75-1.594,0.75s-0.703,0.547-1.125,0.969
	s-0.844,0.375-2.313,0.375s-1.344-0.594-2.188-0.594s-1.094,0.125-1.719,0.75s-1.156,0.094-1.156,1.625s-0.938,1.188-0.938,2.844
	s0.75,0.938,0.75,1.906s-0.688,1.063-1.844,1.063s-1.875-0.094-1.875,0.594s-1.688-0.125-1.688,0.719s-0.938-0.063-0.938,1.063
	s0.531,1,0.531,1.656s-0.797,0.484-1.063,0.75s-1.813-0.031-1.813,1s-0.531,1.656,0.75,1.656c0.938,0-0.253,0.938,0.969,0.938
	c0.938,0,0.219,1.281,0.563,1.625s0.094,1.875,0.781,1.875s0.781,0.719,0.781,1.063s-0.969,0.469-0.969,0.938
	s-0.688,0.625-0.688,1.438s0.906,1.063,0.906,2.188s-0.969,0.594-0.969,1.5s0.375,0.75,0.375,1.688s-0.516,0.984-1.031,1.5
	c0,1.114-0.739,2.136-0.739,3.178s1.75,0.417,1.75,1.542s-1,1.833-1.583,2.75s0,3.792-0.5,7.583s-1.25,5.834-2.208,5.834
	s-1.667,0.083-2.501,2.124s-3.916,5.251-6,7.335s-1.749,3.124-1.749,4.374s1.083,2.875,1.083,3.75s-1,0.792-1,1.5
	s-0.25,1.542-1.478,2.688s-1.23,2.688-1.23,4.188s-1,3.333-1,4.583s-1.25,2.167-1.25,3.25s0.375,2.084,0.375,3.834
	s1.167,1.041,1.167,2.59s-2.167,1.826-2.167,2.784s1.208,0.834,1.208,2.084s1.084,0.75,1.084,2.625s-1.417,2.333-1.417,3.292
	s2.021,2.479,3.667,4.125s0.583,4.5,0.583,6.208s0.75,2.75,3.042,2.75s2.666,1.708,3.125,2.833s1.958,1.75,3,4.375
	s-0.293,3.293,1.374,4.959s0.875,2.583,3.792,4.666s4.292,3.75,5.542,5c1.833,1.832,3.124,3.874,5.874,5.624
	s2.874,3.208,4.041,6.375s1.918,1.417,4.584,5s11.416,7.833,13.333,7.833s4.001,0.251,7.417-1.416s8.334-1.25,10.5-6.167
	s-0.083-7.417,4-11.5c3.083,0,11.563-1.146,15.125-1.146c0,0,38.5,2.063,41.25,2.063c-2.813-2.813-3.041-2.416-3.041-4.333
	s-4.418-4.418-5.834-5.084s-0.25-1.834-1.333-3.75s-2.333-0.916-3.083-1.666s0.667-1.333-0.5-2.5s-2.75-2.418-2.75-4.251
	s-2.082-3.332-2.666-4.666s0.666-3,0.666-5.167s1.25-0.833,1.25-2.75s-2.876-2.374-1.667-3.583s4.833-1,7.917-2
	s64.25-36.25,64.25-36.25c-2.479,1.313-5.146,0.375-6.334,0.375s-0.719-2.844-1.375-3.5s-2.063,0.5-3-1.667s-1.5-1.646-2.625-2.771
	s-2.531-1.031-1.188-2.375s-0.625-2.25-1.813-2.25s-0.875-1.375-2.313-1.375s-1.5,1.375-3.25,1.375s-2.688-0.625-2.688-1.5
	s-1.5-2.313-3.063-1.688s-3.438,0.063-3.438-1.063s-0.875-2.188-2.375-2.188s-1.5,1.063-2.438,1.063s-0.938-1.375-1.875-1.688
	s-1.219-1.406-2.25-2.438s-2.063,0.875-2.438-0.813s-0.938-0.625-1.563-2.5s-0.469-3.031-1.563-4.125s-2.375-0.625-3,0.938
	s-1.688,2.25-3.438,1.625s-2.188-0.313-3.375-2.375s-1.844-2.625-3.375-2.625s-3.531-1.344-4.75-2.563s-3.625-0.313-5.375-0.313
	s-1.75,2.5-2.875,2.5s-2.049-0.389-2.938-1.278s-1.563,0.278-2.813,0.278s-1.875-1.125-2.563-1.125s-0.75,0.847-1.75,0.847
	s-1.688-1.159-3.125-1.159s-1.625-0.813-2.375-2.375s-1.563-0.625-1.938-1.625s2.5-1.938,0-3.813s-4.188-0.5-4.75-1.063
	s0.25-2.25-0.75-2.25s-0.625,0.875-1.813,0.875s-1.063-3-2.5-3.688s-4.438,0-5.313-0.875s-0.75-2.188-0.75-3.563
	s-1.063-0.813-1.438-3s-0.938-1-1.438-2.188s-0.875-0.25-1.375,0.25s-2.063,0.938-2.375-0.813s0.938-1.688,0.938-2.875
	s-0.656-1.156-1.063-1.563s-0.313-2.063-1.125-2.063s-2.375-0.125-2.938-1.813s0.438-2.75,0-4.063s-1.125-1.063-1.125-2.813
	s-1.125,0.063-1.125-2s1.125-2.125,1.813-2.813s-0.438-2.063,0.688-2.438s2.688-1.625,1.001-2.438s-0.376-1.813-1.313-2.75
	s-2.188-1-2.188-2.563s1.313-1.813,1.313-3.313s-2.063-0.25-2.063-2.188s-0.563-1.688-0.563-2.938s2-1.438,2-2.5
	s-0.52-2.25-0.52-2.25C192.828,61.704,192.287,62.454,192.287,63.288z"/>
<path fill="none" stroke="#211915" stroke-miterlimit="10" d="M312.328,163.579c0.097-0.028,0.175-0.05,0.262-0.075
	C312.506,163.511,312.42,163.53,312.328,163.579z"/>
<path fill="none" stroke="#211915" stroke-miterlimit="10" d="M197.62,45.09c0-0.823-1.667-1.427-1.667-2.302
	s-1.166-1.708-1.458-2.417s-0.333-0.917-1.042-0.917s-1.208,0.416-1.208,0.875s-1.083,0.834-1.083,1.583s-0.813,1.395-1.292,1.875
	s-0.417,1.042-1.25,1.042s-0.396-0.396-0.917-0.917s-0.938-0.021-1.416-0.5c-0.916-0.917-0.875-1.708-3.334-1.708
	c-1.5,0-1.542,0.875-2.833,0.875s-1.125-0.458-2.75-0.458s-2.542,1.625-3.125,1.625s-0.98-0.021-1.542-0.583s-2.125,0-2.917,0
	s-1.375,1.542-2.166,1.542s-1.917,0-3,0s-2.167,1.75-2.875,1.75s-4.083,0.208-5.792,0.208c-4.959,2.416-12.542,9.959-14.25,12.292
	c0,0-1.083,0.208-2.208,0.208s-0.75,1.542-1.834,1.542s-1.416-0.833-2.583-0.833s-1.458,1-1.458,1.792s-1.625,1.167-2.625,1.167
	s-0.667,1.167-1.667,2.167s-1.792,0.333-3.292,1.042s-1.208,2.625-2.25,3s-1.5,1.375-1.5,2.333s-0.666,2.144-1.791,2.144
	s-1.084-1.519-2.209-1.519s-5.708,0-7.375,0s-2.104,1.833-2.104,2.771s-1.875,2.188-2.813,3.125s-0.438,1.938-1.25,2.75
	s-1.625,2.813-2.813,2.813s-1.594,0.344-2.188,0.938s-2.5,0.313-3.375,0.313s-2.75,2.313-4.25,2.313s-1.375,1-2.125,1
	s-1.5,0.188-1.5-0.375s-0.875-0.938-0.875-1.813s1.469-1.656,0.5-2.625s-1.25,0.563-3.625,0.563s-2.438-1.25-3.438-1.25
	s-4.375,0.25-5.188,0.25s-0.688-1-1.5-1s-2.625,0.438-3.375,0.438s-0.875-0.875-1.938-0.875s-1,1.25-1.938,1.25
	c-5.125,0-4.25,0.625-4.25,0.625s15.25,23.75,18,27.625c1.875,3.75,11.25,21.25,11.25,21.25s1.251-0.25,1.959-0.958s0.375-3,1.917-3
	s-0.126,1.083,2.187,1.083s2.531-5.281,3.781-6.531s2.844-0.781,2.844-2.094c0-2.25-0.938-3.563,0.813-5.313
	s3.625-1.188,5.188-1.188s3.188-2.688,3.625-2.688c0.197,0,6.703,3.081,13.852,6.424c8.748,4.093,18.459,8.579,18.742,8.295
	c0.516-0.516,1.031-0.563,1.031-1.5s-0.375-0.781-0.375-1.688s0.969-0.375,0.969-1.5s-0.906-1.375-0.906-2.188
	s0.688-0.969,0.688-1.438s0.969-0.594,0.969-0.938s-0.094-1.063-0.781-1.063s-0.438-1.531-0.781-1.875s0.375-1.625-0.563-1.625
	c-1.222,0-0.031-0.938-0.969-0.938c-1.281,0-0.75-0.625-0.75-1.656s1.547-0.734,1.813-1s1.063-0.094,1.063-0.75
	s-0.531-0.531-0.531-1.656s0.938-0.219,0.938-1.063s1.688-0.031,1.688-0.719s0.719-0.594,1.875-0.594s1.844-0.094,1.844-1.063
	s-0.75-0.25-0.75-1.906s0.938-1.313,0.938-2.844s0.531-1,1.156-1.625s0.875-0.75,1.719-0.75s0.719,0.594,2.188,0.594
	s1.891,0.047,2.313-0.375s0.625-0.969,1.125-0.969s0.844-0.75,1.594-0.75s1.594,0.094,1.594-0.813c0-0.656,0.406-0.594,1-0.594
	c1.563,0,1.813-1.781,0.906-1.781s-0.219-0.844-0.219-1.531s1.188-0.594,1.188-1.094s0.625-0.344,0.625-1.281
	c0-2.188,0.625-2.063,1.031-2.063s0.906-0.281,0.906-1.281s0.656-1.688,0.656-2.344s1.063-0.688,1.063-1.563
	s0.719-1.406,0.719-2.094s-0.656-0.781-0.656-1.344s1.156-0.281,1.156-0.875s0.875-0.875,1.656-0.875s1.656,0.281,2.156,0.781
	c0.75,0.75,1.531,0.5,1.531-0.688s-1.063-0.688-1.063-1.283s-0.906-1.279-0.406-1.779s1.031-0.125,1.656-0.125
	s0.262,0.969,1.678,0.969s1.313-0.896,2.084-1.667s-0.438-2.479,0.208-3.125s1.375-0.333,2.5-0.333s2-2.167,2.917-2.167
	s1.229-0.229,1.833-0.833s1.042-0.333,1.042-1.167s0.541-1.583,2-1.583c1.792,0,1.625-0.708,2.291-1s1.042,0.042,1.042-4.333
	c0-5.958-1.417-5.75-1.417-7.75S197.62,45.913,197.62,45.09z"/>
<path fill="none" stroke="#211915" stroke-miterlimit="10" d="M154.995,260.33c-1.5-1.709-1.708-1.668-1.708-5.084
	c0-2.072-1.287-3.205-1.833-4.002c-0.146-0.212-0.251-0.405-0.251-0.581c0-0.833,0.917-0.917,0.917-1.875s-1.75-0.999-1.75-2.291
	s-1.125-0.625-1.125-1.667s0.833-1.21,0.833-2.251s0.959-0.499,0.959-1.874s-2.084-1.792-2.084-3.042s3.167-3.875,4.042-4.75
	c-1.25-1.25-2.625-2.917-5.542-5s-2.125-3-3.792-4.666s-0.332-2.334-1.374-4.959s-2.541-3.25-3-4.375s-0.833-2.833-3.125-2.833
	s-3.042-1.042-3.042-2.75s1.063-4.562-0.583-6.208s-3.667-3.166-3.667-4.125s1.417-1.417,1.417-3.292s-1.084-1.375-1.084-2.625
	s-1.208-1.126-1.208-2.084s2.167-1.235,2.167-2.784s-1.167-0.84-1.167-2.59s-0.375-2.751-0.375-3.834s1.25-2,1.25-3.25
	s1-3.083,1-4.583s0.003-3.042,1.23-4.188s1.478-1.979,1.478-2.688s1-0.625,1-1.5s-1.083-2.5-1.083-3.75s-0.335-2.29,1.749-4.374
	s5.166-5.294,6-7.335s1.543-2.124,2.501-2.124s1.708-2.043,2.208-5.834s-0.083-6.666,0.5-7.583s1.583-1.625,1.583-2.75
	s-1.75-0.5-1.75-1.542s0.739-2.063,0.739-3.178c-0.283,0.284-9.994-4.202-18.742-8.295c-7.148-3.343-13.654-6.424-13.852-6.424
	c-0.438,0-2.063,2.688-3.625,2.688s-3.438-0.563-5.188,1.188s-0.813,3.063-0.813,5.313c0,1.313-1.594,0.844-2.844,2.094
	s-1.469,6.531-3.781,6.531s-0.645-1.083-2.187-1.083s-1.209,2.292-1.917,3s-1.959,0.958-1.959,0.958
	c-2.063,1.125-1.938,2.125-2.875,3.063s0.563,0.75,0.563,1.875s-2.688,1.313-5.25,3.875s-1.5,6.313-1.5,9.75s0.75,4.625,0.75,7.5
	s-0.688,4.125-0.688,7.5s-3,2-3,4.125s2.375,1.188,2.375,2.688s-0.188,2.438,0.438,3.063s0.813,1.313,0.813,3.938
	c0,1.25,1.531,0.844,2.375,1.688s-0.031,1.594,1.25,2.875s0,2.875-1.25,2.875s-3.313,0.625-3.313,2.625c0,1.563,1.25,1,1.25,2.188
	c0,2.75-1.813,0.5-3.938,2.625s-0.719,3.156-1.438,3.875s-2.479-0.499-2.479,0.959s-0.958,1.084-0.958,2.167s1,1.041,1,2.416
	s-2.624,0.583-3.666,1.625c-1.604,1.604,0.499,2.916,0.499,3.75s-1.333,0.376-1.333,1.959s7.75,7.834,7.75,8.417
	s-4.167,2.124-4.167,4.749c0,1.292-2,1.084-2,3.042s-0.584,1.75-1,2.75s-0.916,0.792-0.916,2.75s0.5,1.333,1.083,2.875
	s4.791,15.875,7.958,15.875s1.916-0.792,4.333-0.792c1.417,0,5.334,3.25,5.334,3.875c0,1.375-7.375,1.875-7.375,6.042
	c0,2.958,2.042,1.751,2.042,3.917s-2.583,2.625-3.625,2.625s-2.209,1.25-2.959,3.5s-1.416,1.583-2.708,2.875
	s0.083,1.417-0.875,2.375s-1.959,0.667-1.959,2.375s-0.457,1.542-2.124,1.542c-0.542,0-4.292,2.667-4.292,4.875
	c0,2.791,2.36,2.578,3.168,3.417c1.264,1.312,0.749,4.707,0.749,7.249c0,1.667,3.061,2.521,4.978,4.896s0.168,4.834,1.313,5.979
	s0.833,1.917,2.333,1.917s0.835,0.583,2.251,0.583c3.291,0,1.832,0.708,2.916,0.708c2.209,0,2.125-1.583,4.042-1.583
	s4.229-1.313,5.625-2.708s7.083-8.958,8.708-8.958s5.416-0.793,9.875,0.416s9.167,6.417,11.042,6.417s2.167-1.209,2.167-2.209
	s-1.125-0.958-1.125-1.833s1.249-0.791,6.916-4.541s8.54-6.667,9.499-6.667s1.709-0.375,2.876-0.375s3,5,4.5,5
	s1.875-1.958,3.375-1.958s1.334-1.75,0.417-1.75s-1.125-1.209-0.167-1.209s1.021-0.937-0.042-1.999s-1.166-1.377-1.166-2.668
	c0-0.178-0.021-0.396-0.056-0.634c-0.214-1.49-1.078-3.998-2.425-5.596c-1.145-1.312-1.77-1.228-1.77-2.187s1.791-1.75,1.791-3.125
	s1.5-2.125,2.875-2.125c2.459,0,2.458-0.959,3.167-0.959c1,0,0.001-4.042,0.709-4.75S156.495,262.039,154.995,260.33z"/>
<path fill="none" stroke="#211915" stroke-miterlimit="10" d="M435.494,315.892c-0.438-1.25-5.063-9.813-5.063-10.313s1.375-2,0-2
	s0-1.125,0-2.313s-0.384-0.804-1.268-1.688s-1.045-1.875-0.42-2.5s0.688-2.188-0.75-2.188s-2.313-1.875-3.75-1.875
	s-1.75,0.5-2.75,0.5s-1.313-1.5-2.188-1.5s-0.625-1.125-1.25-1.75s-0.938-0.125-1.813-0.438s-1.563-2.563-2.978-3.159
	s-1.366,0.565-2.085-0.153s-1.75-0.5-1.75-2.375s0-4.375,0-6.125s-1.188-2.188-1.188-3.188s0-9.875,0-9.875s1.781-1.531,3.625-3.375
	s0.125-1.5,0.125-2.25s2.219-1.969,1.25-2.938s-0.125-2.125-1.375-2.125s-2.188,1.063-3.188,1.063s-52.188-3.188-52.188-3.188
	l-1.416-24.854l-10.375-12.542l9.375-0.208c0,0-0.5-13.583-0.5-14.916s-1.875-1.209-1.875-3.292s-0.916-2-0.916-3.5
	s-0.729-1.729-1.792-2.792s-0.042-1.375-0.042-2.826s-0.958-0.924-0.958-2.257c0-2.083,3.083-3.167,3.083-5.209
	s-1.208-1.208-1.583-2.875s-1.125-4.166-2.542-4.166s-1.292-0.875-2.417-1.625s-1.791,0.333-2.979-0.854s-1.917-0.542-3.271-1.896
	s-1.999-1.084-3.625-2.709s-1.813-0.479-2.833-1.5s-0.625-1.374-1.417-2.166s-0.666,0.708-2.041,0.708s-0.959,1.417-2.417,1.417
	s-2.917-1.917-3.833-1.917s-1.354,0.688-2,1.333s-3.167,1.709-4.584,0.667c-1.328-0.977-1.644-1.032-2.946-0.659
	c-0.087,0.025-0.165,0.047-0.262,0.075c0,0-61.166,35.25-64.25,36.25s-6.708,0.791-7.917,2s1.667,1.666,1.667,3.583
	s-1.25,0.583-1.25,2.75s-1.25,3.833-0.666,5.167s2.666,2.833,2.666,4.666s1.583,3.084,2.75,4.251s-0.25,1.75,0.5,2.5
	s2-0.25,3.083,1.666s-0.083,3.084,1.333,3.75s5.834,3.167,5.834,5.084s0.229,1.521,3.041,4.333c-2.75,0-41.25-2.063-41.25-2.063
	c0,0.228-0.029,0.431-0.074,0.619c-0.291,1.207-1.363,1.687-1.363,2.443c0,0.875,1.438,1.125,1.438,2.813s-0.625,2.563,0,3.188
	s1.5,0.688,1.5,1.938s-1,0.375-1,1.75s1,0.938,1,2.813s-0.875,0.25-0.875,3.188s-2.875,3.188-2.875,4.563s0.563,3-0.281,3.906
	c-0.188,0.202-0.322,0.457-0.424,0.731c-0.354,0.957-0.222,2.186,0.143,2.55c0.469,0.469-0.406,2.281,0,2.688s1.938-0.5,1.938,1.125
	s1.813,1.813,3.125,3.125s1.938,2.125,4.063,3s4.938,2.25,4.938,3.875s3.625,1.813,3.625,4.625c0,1.375-1.063,1.313-2.188,1.313
	s-0.125,0.375-1.938,0.375s-0.781,1.906-1.813,2.938s-1.938,2.125-2.625,3.813s-1.563,1.125-1.563,2.563s-4.625,3.938-4.625,5.313
	s1.938,4.625,2.625,7s2.438,3.063,4.063,5.813s-0.063,2.813,1.375,3.625s4.063,2.5,4.063,4.063s-0.375,3.375-0.75,4.875
	c0,0,0.25,0.875,0.25,2.5s1.438,2.125,3.313,5.188s1.594,1.219,3.875,3.5s0.688,4.313,2.938,4.313s0.969-2.031,2.375-3.438
	s4.281-0.844,4.813-0.313s0.5,2.5-0.375,2.5s-0.688,2.563-0.688,5s1.125,4.313,1.125,7.125s-0.125,12.375-0.125,13.938
	s1.25,1.375,1.25,3.563c0,9.125-0.406,11.344,1.125,12.875s2.438,0.313,3.5,0.313c2.875,0,0.438-1.625,2.563-1.625
	s1.656-2.469,2.75-1.375s0.604,3.876,2.438,3.876h31.416c0,0,8.521-10.251,9.708-13.126s2.813-7.5,4.75-13.063
	c2.688-1.188,25.625-4,31.5-5.063s19.125-4.75,20.438-5.375s29.5,0.438,29.5,0.438s26.875,17,26.875,18.25s-0.688,0.688-0.688,1.625
	s1.125,1.813,1.125,2.875s-0.5,6.125-0.5,6.125s1.781,0.219,3-1s1.781-2.156,2.438-2.813s2.75-0.063,3.063-0.938s1.938,0,0.5-1.438
	s-7.75-7.5-7.75-7.875s9.125-16.688,10.313-19.5s3.063-1,3.063-3.063c0-3-1.938-2.938-1.563-3.875s6.25-18,6.938-19.563
	s2.563,0.063,2.563-1S437.369,315.892,435.494,315.892z"/>
<path fill="none" stroke="#211915" stroke-miterlimit="10" d="M229.119,281.829c0-1.625-2.813-3-4.938-3.875s-2.75-1.688-4.063-3
	s-3.125-1.5-3.125-3.125s-1.531-0.719-1.938-1.125s0.469-2.219,0-2.688c-0.364-0.364-0.496-1.593-0.143-2.55
	c0.102-0.274,0.236-0.529,0.424-0.731c0.844-0.906,0.281-2.531,0.281-3.906s2.875-1.625,2.875-4.563s0.875-1.313,0.875-3.188
	s-1-1.438-1-2.813s1-0.5,1-1.75s-0.875-1.313-1.5-1.938s0-1.5,0-3.188s-1.438-1.938-1.438-2.813c0-0.757,1.072-1.236,1.363-2.443
	c0.045-0.188,0.074-0.392,0.074-0.619c-3.563,0-12.042,1.146-15.125,1.146c-4.083,4.083-1.834,6.583-4,11.5s-7.084,4.5-10.5,6.167
	s-5.5,1.416-7.417,1.416s-10.667-4.25-13.333-7.833s-3.417-1.833-4.584-5s-1.291-4.625-4.041-6.375s-4.041-3.792-5.874-5.624
	c-0.875,0.875-4.042,3.5-4.042,4.75s2.084,1.667,2.084,3.042s-0.959,0.833-0.959,1.874s-0.833,1.209-0.833,2.251
	s1.125,0.375,1.125,1.667s1.75,1.333,1.75,2.291s-0.917,1.042-0.917,1.875c0,0.176,0.105,0.369,0.251,0.581
	c0.546,0.797,1.833,1.93,1.833,4.002c0,3.416,0.208,3.375,1.708,5.084s0.5,2.458-0.208,3.166s0.291,4.75-0.709,4.75
	c-0.709,0-0.708,0.959-3.167,0.959c-1.375,0-2.875,0.75-2.875,2.125s-1.791,2.166-1.791,3.125s0.625,0.875,1.77,2.187
	c1.347,1.598,2.211,4.105,2.425,5.596c0.034,0.238,0.056,0.456,0.056,0.634c0,1.291,0.104,1.605,1.166,2.668s1,1.999,0.042,1.999
	s-0.75,1.209,0.167,1.209s1.083,1.75-0.417,1.75s-1.875,1.958-3.375,1.958c0.229,1.499,1.385,0.405,3.916,2.937
	c1.553,1.554,3.576,4.682,5.124,7.229c0.115,0.189,0.226,0.372,0.335,0.554c0.014,0.022,0.027,0.045,0.041,0.067
	c0.102,0.171,0.201,0.338,0.299,0.5c0.024,0.041,0.047,0.08,0.071,0.12c0.463,0.778,0.853,1.447,1.13,1.919
	c0.018,0.03,0.037,0.063,0.053,0.091c0.074,0.127,0.142,0.239,0.197,0.332c1.688-0.688,2.781-0.719,3.406,0.156
	s1.719-0.469,2.594-0.469s0.813,0.5,2.125,0.5s0.938-0.563,2.344-1.344s2.469-2.594,3.719-2.594s2.375-0.813,3.25-0.813
	s2,2.75,3.25,4s2.188-0.5,3.25,0.563s5.125,4.125,6.313,5.313s5.986,6.916,9.18,9.271c0.001,0,0.002,0.001,0.002,0.001
	c0.047,0.023,0.082,0.049,0.119,0.073c0.024,0.014,0.051,0.027,0.07,0.042c0.029,0.022,0.05,0.046,0.074,0.069
	c0.015,0.015,0.033,0.03,0.048,0.046c0.057,0.065,0.091,0.135,0.112,0.205c0.001,0.006,0.004,0.012,0.005,0.018
	c0.001,0.004,0.003,0.008,0.004,0.013c0.012,0.05,0.019,0.1,0.019,0.15c0.001,0.008,0.002,0.016,0.002,0.023
	c-0.001,0.026-0.005,0.052-0.008,0.077c-0.001,0.008-0.002,0.016-0.002,0.023c-0.014,0.103-0.039,0.204-0.064,0.306
	c-0.003,0.015-0.006,0.03-0.01,0.046c-0.02,0.077-0.035,0.154-0.043,0.229c0,0.008-0.001,0.016-0.002,0.023
	c-0.003,0.055,0.002,0.107,0.012,0.158c0.002,0.014,0.006,0.026,0.01,0.04c0.016,0.055,0.039,0.107,0.08,0.157c0,0,0,0,0.001,0.001
	c0.04,0.048,0.099,0.092,0.169,0.134c0.018,0.01,0.035,0.021,0.055,0.03c0.08,0.041,0.172,0.08,0.293,0.114
	c1.563,0.438,1.313,1.813,1.75,3.188s2.563,0.375,3.438,1.25s2.813,2.188,2.313-0.063c-0.134-0.603-0.088-1.028,0.066-1.368
	c0.424-0.93,1.727-1.175,2.871-2.319c0.407-0.407,0.85-0.701,1.295-0.908c1.266-0.587,2.549-0.436,3.08,0.096
	c0.719,0.719,2.344-0.031,3.688,1.313s3,4.188,4.188,4.188s2.75-1.875,4.25-1.875s1.063,1.875,2.813,1.875
	c0.375-1.5,0.75-3.313,0.75-4.875s-2.625-3.25-4.063-4.063s0.25-0.875-1.375-3.625s-3.375-3.438-4.063-5.813s-2.625-5.625-2.625-7
	s4.625-3.875,4.625-5.313s0.875-0.875,1.563-2.563s1.594-2.781,2.625-3.813s0-2.938,1.813-2.938s0.813-0.375,1.938-0.375
	s2.188,0.063,2.188-1.313C232.744,283.642,229.119,283.454,229.119,281.829z"/>
</svg>
