<?xml version="1.0" encoding="utf-8"?>
<!-- Generator: Adobe Illustrator 16.0.0, SVG Export Plug-In . SVG Version: 6.00 Build 0)  -->
<!DOCTYPE svg PUBLIC "-//W3C//DTD SVG 1.1//EN" "http://www.w3.org/Graphics/SVG/1.1/DTD/svg11.dtd">
<svg version="1.1" id="Capa_1" xmlns="http://www.w3.org/2000/svg" xmlns:xlink="http://www.w3.org/1999/xlink" x="0px" y="0px"
	 width="120.902px" height="120.85px" viewBox="0 0 120.902 120.85" enable-background="new 0 0 120.902 120.85"
	 xml:space="preserve">
<rect x="-0.044" y="-0.075" fill="none" width="120.946" height="121"/>
<path fill="none" stroke="#000000" stroke-width="3.7" stroke-linecap="round" stroke-linejoin="round" stroke-miterlimit="10" d="
	M58.127,45.88c0,1.393-1.129,2.521-2.521,2.521H40.541c-1.393,0-2.521-1.129-2.521-2.521V26.35c0-1.394,1.128-2.521,2.521-2.521
	h15.064c1.393,0,2.521,1.128,2.521,2.521V45.88z"/>
<line fill="none" stroke="#000000" stroke-width="3.7" stroke-linecap="round" stroke-linejoin="round" stroke-miterlimit="10" x1="66.374" y1="28.447" x2="82.016" y2="28.447"/>
<line fill="none" stroke="#000000" stroke-width="3.7" stroke-linecap="round" stroke-linejoin="round" stroke-miterlimit="10" x1="66.374" y1="44.83" x2="82.016" y2="44.83"/>
<line fill="none" stroke="#000000" stroke-width="3.7" stroke-linecap="round" stroke-linejoin="round" stroke-miterlimit="10" x1="38.021" y1="61.211" x2="72.193" y2="61.211"/>
<line fill="none" stroke="#000000" stroke-width="3.7" stroke-linecap="round" stroke-linejoin="round" stroke-miterlimit="10" x1="38.021" y1="77.592" x2="66.895" y2="77.592"/>
<line fill="none" stroke="#000000" stroke-width="3.7" stroke-linecap="round" stroke-linejoin="round" stroke-miterlimit="10" x1="38.021" y1="93.974" x2="72.193" y2="93.974"/>
<path fill="none" stroke="#000000" stroke-width="3.7" stroke-linecap="round" stroke-linejoin="round" stroke-miterlimit="10" d="
	M90.834,101.167v3.729c0,3.479-2.82,6.301-6.3,6.301H34.13c-3.479,0-6.3-2.82-6.3-6.301V19.681c0-3.48-2.679-6.302-6.933-6.302
	h63.637c3.479,0,6.3,2.82,6.3,6.302v33.761"/>
<path fill="none" stroke="#000000" stroke-width="3.7" stroke-linecap="round" stroke-linejoin="round" stroke-miterlimit="10" d="
	M20.898,13.38c-3.826,0-6.929,3.104-6.929,6.931v13.179c0,0.697,0.565,1.26,1.261,1.26h11.338c0.697,0,1.263-0.563,1.263-1.26V20.31
	C27.83,16.482,24.727,13.38,20.898,13.38z"/>
<circle fill="none" stroke="#000000" stroke-width="3.7" stroke-linecap="round" stroke-linejoin="round" stroke-miterlimit="10" cx="90.836" cy="76.874" r="4.53"/>
<path fill="none" stroke="#000000" stroke-width="3.7" stroke-linecap="round" stroke-linejoin="round" stroke-miterlimit="10" d="
	M106.377,73.307h-4.269c-0.207-0.655-0.472-1.278-0.786-1.876l2.686-2.684c0.438-0.44,0.438-1.152,0-1.593l-3.453-3.453
	c-0.441-0.44-1.152-0.44-1.591,0l-2.687,2.685c-0.599-0.313-1.221-0.58-1.875-0.786V61.33c0-0.62-0.504-1.125-1.127-1.125h-4.882
	c-0.621,0-1.126,0.505-1.126,1.125V65.6c-0.653,0.206-1.279,0.474-1.878,0.786l-2.685-2.685c-0.439-0.441-1.149-0.441-1.59,0
	l-3.454,3.452c-0.438,0.44-0.44,1.152,0,1.591l2.685,2.687c-0.313,0.599-0.577,1.222-0.784,1.876H75.29
	c-0.62,0-1.124,0.503-1.124,1.126v4.883c0,0.62,0.504,1.125,1.124,1.125h4.271c0.207,0.654,0.471,1.277,0.784,1.876l-2.685,2.685
	c-0.438,0.439-0.438,1.152,0,1.592l3.454,3.454c0.44,0.438,1.153,0.438,1.593,0l2.686-2.686c0.598,0.313,1.222,0.579,1.874,0.786
	v4.269c0,0.623,0.505,1.126,1.126,1.126h4.882c0.623,0,1.127-0.503,1.127-1.126v-4.269c0.655-0.207,1.277-0.473,1.875-0.785
	l2.682,2.685c0.441,0.438,1.153,0.438,1.592-0.002l3.455-3.452c0.44-0.439,0.44-1.152,0-1.592l-2.684-2.682
	c0.314-0.602,0.579-1.226,0.786-1.879h4.269c0.618,0.003,1.126-0.505,1.125-1.124l0.001-4.884
	C107.503,73.809,106.999,73.307,106.377,73.307z"/>
</svg>
