<?xml version="1.0" encoding="utf-8"?>
<!-- Generator: Adobe Illustrator 16.0.0, SVG Export Plug-In . SVG Version: 6.00 Build 0)  -->
<!DOCTYPE svg PUBLIC "-//W3C//DTD SVG 1.1//EN" "http://www.w3.org/Graphics/SVG/1.1/DTD/svg11.dtd">
<svg version="1.1" id="Capa_1" xmlns="http://www.w3.org/2000/svg" xmlns:xlink="http://www.w3.org/1999/xlink" x="0px" y="0px"
	 width="120.903px" height="120.848px" viewBox="0 0 120.903 120.848" enable-background="new 0 0 120.903 120.848"
	 xml:space="preserve">
<g>
	<path d="M91.807,111.828H31.145c-4.989,0-9.048-4.059-9.048-9.048V18.515c0-4.989,4.059-9.048,9.048-9.048h60.662
		c4.989,0,9.048,4.059,9.048,9.048v84.265C100.854,107.769,96.796,111.828,91.807,111.828z M31.145,13.167
		c-2.949,0-5.349,2.399-5.349,5.348v84.265c0,2.949,2.399,5.349,5.349,5.349h60.662c2.949,0,5.349-2.399,5.349-5.349V18.515
		c0-2.949-2.399-5.348-5.349-5.348H31.145z"/>
</g>
<g>
	<path d="M37.764,34.181c-0.506,0-0.99-0.207-1.339-0.574l-3.094-3.246c-0.705-0.74-0.677-1.911,0.063-2.616
		c0.74-0.705,1.911-0.677,2.615,0.063l1.728,1.812l4.599-5.028c0.689-0.753,1.858-0.807,2.614-0.117
		c0.754,0.69,0.806,1.86,0.116,2.614l-5.937,6.49c-0.346,0.378-0.834,0.596-1.347,0.602C37.776,34.181,37.77,34.181,37.764,34.181z"
		/>
</g>
<g>
	<path d="M85.603,30.971H50.896c-1.021,0-1.85-0.828-1.85-1.85s0.828-1.85,1.85-1.85h34.707c1.021,0,1.85,0.828,1.85,1.85
		S86.624,30.971,85.603,30.971z"/>
</g>
<g>
	<path d="M37.764,54.745c-0.506,0-0.99-0.207-1.339-0.574l-3.094-3.246c-0.705-0.74-0.677-1.911,0.063-2.616
		c0.74-0.704,1.911-0.676,2.615,0.063l1.728,1.812l4.599-5.028c0.689-0.753,1.858-0.807,2.614-0.117
		c0.754,0.69,0.806,1.86,0.116,2.614l-5.937,6.49c-0.346,0.378-0.834,0.596-1.347,0.602C37.776,54.745,37.77,54.745,37.764,54.745z"
		/>
</g>
<g>
	<path d="M85.603,51.534H50.896c-1.021,0-1.85-0.828-1.85-1.85s0.828-1.85,1.85-1.85h34.707c1.021,0,1.85,0.828,1.85,1.85
		S86.624,51.534,85.603,51.534z"/>
</g>
<g>
	<path d="M85.603,72.099H50.896c-1.021,0-1.85-0.828-1.85-1.85s0.828-1.85,1.85-1.85h34.707c1.021,0,1.85,0.828,1.85,1.85
		S86.624,72.099,85.603,72.099z"/>
</g>
<g>
	<path d="M85.603,92.663H50.896c-1.021,0-1.85-0.828-1.85-1.85s0.828-1.85,1.85-1.85h34.707c1.021,0,1.85,0.828,1.85,1.85
		S86.624,92.663,85.603,92.663z"/>
</g>
<g>
	<path d="M39.186,75.485c-2.888,0-5.236-2.349-5.236-5.237c0-2.887,2.349-5.236,5.236-5.236c2.887,0,5.235,2.349,5.235,5.236
		C44.421,73.136,42.072,75.485,39.186,75.485z M39.186,68.713c-0.848,0-1.537,0.689-1.537,1.536c0,0.847,0.689,1.537,1.537,1.537
		c0.847,0,1.536-0.689,1.536-1.537C40.722,69.402,40.032,68.713,39.186,68.713z"/>
</g>
<g>
	<path d="M39.186,96.049c-2.888,0-5.236-2.349-5.236-5.236c0-2.887,2.349-5.236,5.236-5.236c2.887,0,5.235,2.349,5.235,5.236
		C44.421,93.701,42.072,96.049,39.186,96.049z M39.186,89.277c-0.848,0-1.537,0.689-1.537,1.536c0,0.847,0.689,1.537,1.537,1.537
		c0.847,0,1.536-0.69,1.536-1.537C40.722,89.966,40.032,89.277,39.186,89.277z"/>
</g>
<rect y="-0.076" fill="none" width="120.903" height="121"/>
</svg>
