<?xml version="1.0" encoding="utf-8"?>
<!-- Generator: Adobe Illustrator 16.0.0, SVG Export Plug-In . SVG Version: 6.00 Build 0)  -->
<!DOCTYPE svg PUBLIC "-//W3C//DTD SVG 1.1//EN" "http://www.w3.org/Graphics/SVG/1.1/DTD/svg11.dtd">
<svg version="1.1" id="Capa_1" xmlns="http://www.w3.org/2000/svg" xmlns:xlink="http://www.w3.org/1999/xlink" x="0px" y="0px"
	 width="120px" height="120px" viewBox="0 0 120 120" enable-background="new 0 0 120 120" xml:space="preserve">
<g>
	<path fill="#00CC33" d="M60.037,18.28c22.992,0,41.684,18.7,41.684,41.684c0,22.983-18.689,41.683-41.684,41.683
		S18.354,82.947,18.354,59.964C18.354,36.981,37.044,18.28,60.037,18.28 M60.037,9.963c-27.611,0-50.001,22.388-50.001,50.001
		c0,27.611,22.39,50,50.001,50c27.609,0,49.999-22.389,49.999-50C110.036,32.351,87.646,9.963,60.037,9.963L60.037,9.963z"/>
</g>
<path fill="#00CC33" d="M85.793,36.526c-1.806-1.412-4.413-1.092-5.825,0.714c-0.062,0.078-0.101,0.165-0.155,0.246L50.215,74.877
	c0,0-12.602-12.451-12.691-12.541c-1.637-1.637-4.289-1.637-5.926,0c-1.637,1.636-1.637,4.288,0,5.924
	c0.061,0.062,0.133,0.104,0.197,0.161c0,0,12.175,12.922,15.331,16.078c2.421,2.422,5.847,1.574,7.146-0.177
	c6.349-8.552,32.082-41.8,32.082-41.8l-0.008-0.006c0.052-0.059,0.111-0.105,0.16-0.167C87.916,40.544,87.598,37.938,85.793,36.526z
	"/>
</svg>
