<?xml version="1.0" encoding="utf-8"?>
<!-- Generator: Adobe Illustrator 16.0.0, SVG Export Plug-In . SVG Version: 6.00 Build 0)  -->
<!DOCTYPE svg PUBLIC "-//W3C//DTD SVG 1.1//EN" "http://www.w3.org/Graphics/SVG/1.1/DTD/svg11.dtd">
<svg version="1.1" id="Capa_1" xmlns="http://www.w3.org/2000/svg" xmlns:xlink="http://www.w3.org/1999/xlink" x="0px" y="0px"
	 width="120px" height="120px" viewBox="0 0 120 120" enable-background="new 0 0 120 120" xml:space="preserve">
<g>
	<path fill="#CC0000" d="M60,18.332c22.977,0,41.664,18.694,41.664,41.668c0,22.975-18.688,41.664-41.664,41.664
		c-22.977,0-41.664-18.689-41.664-41.664C18.336,37.026,37.023,18.332,60,18.332 M60,10c-27.611,0-50,22.388-50,50
		c0,27.611,22.389,50,50,50c27.611,0,50-22.389,50-50C110,32.388,87.611,10,60,10L60,10z"/>
</g>
<g>
	
		<rect x="30.248" y="55.561" transform="matrix(-0.7071 -0.7071 0.7071 -0.7071 60.191 144.387)" fill="#CC0000" width="59.502" height="8.333"/>
</g>
<g>
	
		<rect x="55.832" y="29.981" transform="matrix(-0.7072 -0.707 0.707 -0.7072 60.2016 144.3987)" fill="#CC0000" width="8.335" height="59.505"/>
</g>
<circle fill="#CC0000" cx="60" cy="59.734" r="4.75"/>
<circle fill="#CC0000" cx="38.938" cy="80.795" r="4.189"/>
<circle fill="#CC0000" cx="80.936" cy="38.798" r="4.189"/>
<circle fill="#CC0000" cx="38.938" cy="38.798" r="4.189"/>
<circle fill="#CC0000" cx="80.936" cy="80.795" r="4.189"/>
</svg>
