<?xml version="1.0" encoding="utf-8"?>
<!-- Generator: Adobe Illustrator 16.0.0, SVG Export Plug-In . SVG Version: 6.00 Build 0)  -->
<!DOCTYPE svg PUBLIC "-//W3C//DTD SVG 1.1//EN" "http://www.w3.org/Graphics/SVG/1.1/DTD/svg11.dtd">
<svg version="1.1" id="Capa_1" xmlns="http://www.w3.org/2000/svg" xmlns:xlink="http://www.w3.org/1999/xlink" x="0px" y="0px"
	 width="122.926px" height="121px" viewBox="0 0 122.926 121" enable-background="new 0 0 122.926 121" xml:space="preserve">
<g>
	<g>
		<path d="M62.012,27.236c-1.676,0-3.305-0.755-4.401-1.931c-1.735-1.858-2.295-4.923,0.365-7.584
			C61.41,14.284,70.541,6,70.928,5.648c0.739-0.672,1.886-0.618,2.559,0.124c0.672,0.74,0.618,1.888-0.124,2.561
			c-0.097,0.086-9.45,8.576-12.824,11.95c-0.912,0.912-1.007,1.77-0.276,2.548c0.614,0.66,1.934,1.194,2.941,0.318
			c3.506-3.055,9.085-7.728,9.142-7.774c0.573-0.483,1.387-0.561,2.046-0.195c1.359,0.763,8.192,1.815,10.936-2.45
			c0.541-0.842,1.664-1.088,2.504-0.543c0.844,0.539,1.083,1.661,0.543,2.502c-3.445,5.362-10.855,5.38-14.544,4.17
			c-1.692,1.424-5.579,4.699-8.248,7.024C64.497,26.827,63.241,27.236,62.012,27.236z"/>
	</g>
	<g>
		<path d="M75.043,32.869c-0.922,0-1.859-0.047-2.817-0.145c-0.997-0.098-1.719-0.988-1.622-1.983c0.1-0.998,1.01-1.727,1.986-1.622
			c5.367,0.537,10.003-0.669,13.029-3.405c2.424-2.192,3.759-5.327,3.759-8.824c0-1.002,0.812-1.814,1.812-1.814
			c1.001,0,1.81,0.812,1.81,1.814c0,4.536-1.756,8.625-4.95,11.512C84.818,31.322,80.275,32.869,75.043,32.869z"/>
	</g>
	<g>
		<path d="M95.635,27.231h-7.276c-0.998,0-1.81-0.811-1.81-1.813c0-1.001,0.812-1.812,1.81-1.812h7.276
			c1.006,0,1.816,0.811,1.816,1.812C97.451,26.42,96.641,27.231,95.635,27.231z"/>
	</g>
	<g>
		<path d="M108.732,32.106H97.142c-1.829,0-3.318-1.487-3.318-3.315V2.854c0-0.48,0.194-0.94,0.534-1.281
			c0.338-0.34,0.8-0.531,1.277-0.531l0,0l13.098,0.001c1.825,0,3.313,1.489,3.313,3.318v24.43
			C112.045,30.619,110.558,32.106,108.732,32.106z M97.451,28.481h10.968V4.668L97.451,4.667V28.481z"/>
	</g>
	<g>
		<path d="M102.932,26.33c-1,0-1.811-0.812-1.811-1.813v-4.623c0-1,0.811-1.812,1.811-1.812c1.006,0,1.817,0.812,1.817,1.812v4.623
			C104.749,25.519,103.938,26.33,102.932,26.33z"/>
	</g>
	<g>
		<path d="M48.779,18.386c-0.457,0-0.912-0.169-1.263-0.511c-0.72-0.696-0.74-1.844-0.041-2.562
			c0.081-0.082,8.001-8.25,10.798-11.044c3.234-3.234,6.043-3.24,10.275-3.228l27.086,0.001c1.006,0,1.816,0.811,1.816,1.812
			c0,1.001-0.811,1.813-1.816,1.813L68.546,4.665c-3.87,0.003-5.54-0.006-7.713,2.166c-2.772,2.777-10.677,10.923-10.752,11.005
			C49.723,18.203,49.252,18.386,48.779,18.386z"/>
	</g>
	<g>
		<path d="M34.181,67.303c-1.003,0-1.814-0.81-1.814-1.813V18.392c0-1.828,1.489-3.316,3.32-3.316h25.558
			c1.003,0,1.814,0.812,1.814,1.814c0,1-0.812,1.811-1.814,1.811H35.996v46.79C35.996,66.493,35.182,67.303,34.181,67.303z"/>
	</g>
	<g>
		<path d="M72.209,67.303c-1.003,0-1.812-0.81-1.812-1.813V18.392c0-1,0.809-1.813,1.812-1.813c1.002,0,1.811,0.813,1.811,1.813
			V65.49C74.02,66.493,73.211,67.303,72.209,67.303z"/>
	</g>
	<g>
		<path d="M94.459,76.48h-82.53c-0.633,0-1.22-0.327-1.548-0.868c-0.328-0.539-0.354-1.209-0.064-1.773
			c0.306-0.595,7.531-14.662,9.178-17.624c0.619-1.121,1.949-2.436,3.651-2.436H34.17c1.005,0,1.813,0.812,1.813,1.814
			c0,1-0.808,1.813-1.813,1.813H23.146c-0.033,0.03-0.326,0.281-0.484,0.571c-1.186,2.139-5.524,10.531-7.761,14.879h76.572
			c-2.071-3.986-5.935-11.429-7.713-14.94c-0.117-0.227-0.439-0.482-0.578-0.516l-10.77,0.006c-1.002,0-1.813-0.813-1.813-1.813
			c0-1.002,0.812-1.814,1.813-1.814h10.837c1.626,0,3.116,1.257,3.741,2.498c2.473,4.884,9.012,17.427,9.075,17.554
			c0.297,0.563,0.271,1.235-0.054,1.777C95.679,76.151,95.092,76.48,94.459,76.48z"/>
	</g>
	<g>
		<path d="M92.957,120.271H13.432c-1.825,0-3.315-1.489-3.315-3.317V74.668c0-1.001,0.813-1.813,1.813-1.813h82.53
			c1.002,0,1.812,0.812,1.812,1.813v42.286C96.271,118.782,94.785,120.271,92.957,120.271z M13.74,116.646h78.904V76.48H13.74
			V116.646z"/>
	</g>
	<g>
		<path d="M76.653,67.303H29.734c-1.001,0-1.813-0.81-1.813-1.813c0-1.001,0.812-1.812,1.813-1.812h46.919
			c1.003,0,1.813,0.811,1.813,1.812C78.467,66.493,77.656,67.303,76.653,67.303z"/>
	</g>
	<g>
		<path d="M50.032,55.787c-0.687,0-1.326-0.265-1.811-0.746L38.06,44.611c-0.469-0.466-0.737-1.111-0.737-1.797
			s0.269-1.33,0.755-1.813l4.678-4.681c0.971-0.969,2.657-0.969,3.628,0l3.694,3.893l9.636-9.869c1.002-1,2.674-0.984,3.641-0.014
			l4.681,4.68c0.998,1,0.998,2.625,0.002,3.626L51.853,55.027C51.356,55.521,50.714,55.787,50.032,55.787z M41.105,42.828
			l8.863,9.093L65,36.691l-3.253-3.25L51.315,44.125c-0.348,0.357-0.825,0.558-1.326,0.558h-0.013
			c-0.504-0.004-0.99-0.213-1.335-0.578l-4.292-4.522L41.105,42.828z"/>
	</g>
</g>
</svg>
