<?xml version="1.0" encoding="utf-8"?>
<!-- Generator: Adobe Illustrator 16.0.0, SVG Export Plug-In . SVG Version: 6.00 Build 0)  -->
<!DOCTYPE svg PUBLIC "-//W3C//DTD SVG 1.1//EN" "http://www.w3.org/Graphics/SVG/1.1/DTD/svg11.dtd">
<svg version="1.1" id="Capa_1" xmlns="http://www.w3.org/2000/svg" xmlns:xlink="http://www.w3.org/1999/xlink" x="0px" y="0px"
	 width="120.903px" height="120.848px" viewBox="0 0 120.903 120.848" enable-background="new 0 0 120.903 120.848"
	 xml:space="preserve">
<path d="M16.942,95.523c7.34,4.361,31.456,18.689,40.433,24.022c1.976,1.174,4.144,1.528,6.88-0.107
	c9.019-5.39,33.465-19.987,40.361-24.105c1.168-0.697,1.832-1.73,1.832-3.575c0-8.875,0-30.094,0-40.13
	c0-2.397-1.592-3.918-3.495-2.783c-8.384,5.003-30.077,17.947-38.654,23.066c-2.224,1.327-5.054,1.243-7.491-0.205
	c-8.885-5.279-30.385-18.057-38.485-22.874c-2.626-1.561-3.528-0.286-3.528,1.535c0,10.468,0,32.68,0,41.318
	C14.794,93.31,15.579,94.713,16.942,95.523z"/>
<polygon points="42.693,36.601 48.639,40.137 48.639,32.928 "/>
<path d="M72.624,30.534l-0.549-0.325c0.049,1.307,0.182,2.635,0.521,3.794L72.624,30.534z"/>
<polygon points="48.639,40.138 72.438,54.291 48.639,40.137 "/>
<path d="M52.789,26.13c0,3.349,0,11.131,0,14.48c0,0.881,0.384,1.08,0.745,1.291c2.97,1.731,10.139,5.912,13.109,7.643
	c0.412,0.24,1.118,0.078,1.118-0.785c0-3.34,0-10.663,0-14.003c0-1.45-1.129-2.143-1.505-2.358c-3.06-1.76-9.183-5.283-12.242-7.043
	C53.708,25.178,52.789,25.249,52.789,26.13z M65.228,46.098l-9.938-5.881V29.014l9.938,5.937V46.098z"/>
<path d="M56.327,36.739c0.44,1.265,1.148,2.977,1.651,3.938c0.2,0.384,0.577,0.582,0.972,0.227c1.191-1.073,4.021-3.534,5.15-4.599
	c0.395-0.373,0.051-0.868-0.444-0.528c-1.2,0.823-4.877,3.053-4.877,3.053s-1.204-1.505-1.709-2.377
	C56.69,35.798,56.108,36.113,56.327,36.739z"/>
<path d="M89.702,23.12c-3.297-2.049-4.764-2.276-4.764-5.286S87.677,8,93.456,4.584c5.779-3.415,10.754,0.732,10.754,0.732
	c-3.951,0-7.227,2.424-10.265,5.931C91.06,14.578,88.956,19.223,89.702,23.12z"/>
<path d="M92.518,24.662c2.681,2.68,10.311-0.123,14.249-8.446c1.642-3.465,2.203-9.172-2.477-9.172
	C96.574,7.043,88.339,20.482,92.518,24.662z"/>
<path d="M80.678,25.894c-0.067,0.609-0.082,1.069-0.082,1.644c0,7.586-0.281,11.365-3.97,11.365c-2.43,0-3.432-1.022-4.029-2.324
	l-0.027,15.489l2.808-1.712l-1.11-0.703l0.004-8.692L84.593,47.1l-12.154,7.191l-23.8-14.153v0l-5.945-3.536l5.945-3.673V21.229
	c0,0-24.478,14.535-32.876,19.518c-1.23,0.729-1.273,2.455-0.223,3.079c9.092,5.403,32.391,19.261,41.482,24.667
	c2.964,1.762,4.287,1.864,7.283,0.082c8.896-5.294,31.979-19.027,40.859-24.312c1.79-1.065,1.721-2.799-0.293-3.997
	C98.825,36.671,80.678,25.894,80.678,25.894z"/>
<path d="M76.626-0.813c-3.395,0-2.186,0.902-7.945,0.902c-7.449,0-4.885,2.328-13.693,2.328c-1.249,0-3.23-0.294-4.625,2.094
	c-1.395,2.387-3.604,5.241-5.52,7.157c-1.913,1.915-0.867,2.936-0.867,4.992c0,2.055-1.689,4.184,0.867,4.184
	c2.068,0,3.537-2.115,4.021-4.439l21.883,12.984c-0.053-1.46,0-1.406,0-2.525c-1.58-1.58-2.246-5.317-2.246-8.202
	c0,0-4.01-2.381-5.346-3.176c-1.855-1.102-3.021-1.08-4.393-0.267c-1.223,0.725-4.891,2.904-4.891,2.904l-4.85-2.849
	c0.012-0.175,0.018-0.351,0.018-0.523c0.367,0,5.531-2.276,5.531-4.399c1.783,1.06,7.756,1.485,9.883,1.485
	c0,1.564,3.968,6.157,5.533,6.157c0,0.467,0.021,1.013,0.057,1.584c0.15,2.325,0.655,5.245,2.031,6.622
	c0,3.814-0.645,11.223,4.551,11.223c2.356,0,2.49-3.021,2.49-10.607c0-0.575,0.037-1.178,0.104-1.787
	c0.375-3.435,1.785-7.07,4.031-7.07c0-6.335,3.49-10.894,8.438-13.836C86.487,1.05,80.02-0.813,76.626-0.813z"/>
</svg>
