<?xml version="1.0" encoding="utf-8"?>
<!-- Generator: Adobe Illustrator 16.0.0, SVG Export Plug-In . SVG Version: 6.00 Build 0)  -->
<!DOCTYPE svg PUBLIC "-//W3C//DTD SVG 1.1//EN" "http://www.w3.org/Graphics/SVG/1.1/DTD/svg11.dtd">
<svg version="1.1" id="Capa_1" xmlns="http://www.w3.org/2000/svg" xmlns:xlink="http://www.w3.org/1999/xlink" x="0px" y="0px"
	 width="120.902px" height="120.85px" viewBox="0 0 120.902 120.85" enable-background="new 0 0 120.902 120.85"
	 xml:space="preserve">
<g>
	<g>
		<path stroke="#FFFFFF" stroke-width="0.25" stroke-miterlimit="10" d="M58.548,111.692c-43.547-10.83-47.729-43.466-47.729-77.753
			c0-2.583,2.098-3.273,2.098-3.273S47.522,15.078,59.06,9.885c0.82-0.368,2.05-0.377,3.135,0.095
			c11.46,4.977,46.84,19.908,46.84,19.908s1.63,0.633,1.63,3.067c0,35.271-8.288,69.906-48.47,78.815
			C61.177,111.997,59.966,112.045,58.548,111.692z M15.447,33.916c0.075,31.914,2.992,63.701,45.061,73.935
			c39.704-9.286,45.528-41.222,45.528-74.905L60.511,14.174L15.447,33.916z"/>
	</g>
</g>
<rect x="-0.421" y="0.272" fill="none" width="121.323" height="121"/>
<g>
	<path fill="none" d="M69.403,72.478h1.424c0.771,0,1.399,0.628,1.399,1.399c0,0.772-0.628,1.401-1.399,1.401H41.035
		c-0.771,0-1.399-0.628-1.399-1.401c0-0.771,0.628-1.399,1.399-1.399h1.422v-3.484h-5.506c-0.058,0.056-0.138,0.142-0.185,0.231
		c-0.701,1.263-3.197,6.082-4.739,9.079h47.795c-1.36-2.621-3.632-6.996-4.708-9.124c-0.033-0.064-0.14-0.155-0.194-0.189
		l-5.518,0.003V72.478z"/>
	<path fill="none" d="M65.678,35.508c-2.428,0.001-3.42,0.001-4.72,1.304c-1.022,1.023-3.11,3.163-4.71,4.807h4.356
		c2.246-2.122,5.272-4.88,6.354-5.863l0.063-0.057c0.096-0.086,0.212-0.135,0.326-0.189h-1.442L65.678,35.508L65.678,35.508z"/>
	<path fill="none" d="M66.604,46.649c-0.903,0.767-1.855,1.582-2.643,2.268c-0.691,0.604-1.533,0.921-2.434,0.921
		c-1.099,0-2.212-0.486-2.977-1.302c-0.959-1.029-1.371-2.597-0.539-4.117h-12.75v28.06h21.342V46.649z M65.53,57.002L55.257,67.409
		c-0.36,0.36-0.833,0.558-1.332,0.558c-0.5,0-0.971-0.193-1.327-0.546l-6.454-6.626c-0.347-0.344-0.539-0.812-0.539-1.314
		c0-0.504,0.196-0.978,0.554-1.33l2.971-2.971c0.68-0.68,1.977-0.68,2.654,0l2.172,2.288l5.936-6.08
		c0.356-0.354,0.833-0.549,1.344-0.549c0.501,0,0.984,0.196,1.325,0.537l2.971,2.972c0.354,0.354,0.551,0.826,0.551,1.328
		C66.079,56.177,65.885,56.649,65.53,57.002z"/>
	<path fill="none" d="M54.915,60.486c-0.264,0.271-0.636,0.43-1.021,0.43c-0.396-0.003-0.769-0.166-1.035-0.443l-2.551-2.687
		l-1.702,1.704l5.276,5.414l9.191-9.313l-1.712-1.709L54.915,60.486z"/>
	<path fill="none" d="M68.604,35.508c0.146,0.072,0.285,0.161,0.397,0.284c0.252,0.277,0.38,0.636,0.359,1.01
		c-0.019,0.374-0.182,0.72-0.459,0.971l-0.05,0.045c-1.419,1.291-6.193,5.647-8.081,7.534c-0.625,0.622-0.419,1.005-0.171,1.27
		c0.193,0.207,0.551,0.415,0.918,0.415c0.227,0,0.428-0.077,0.604-0.229c2.227-1.94,5.779-4.916,5.809-4.939
		c0.431-0.363,1.084-0.428,1.582-0.151c0.306,0.173,1.247,0.413,2.388,0.413c1.125,0,3.168-0.245,4.224-1.885
		c0.404-0.629,1.309-0.828,1.937-0.42c0.313,0.2,0.529,0.511,0.609,0.875c0.08,0.367,0.013,0.743-0.191,1.06
		c-1.295,2.018-3.71,3.175-6.623,3.175c-0.857,0-1.707-0.109-2.45-0.303v5.964c0.132,0.003,0.268,0.02,0.396,0.02
		c2.711,0,4.977-0.752,6.552-2.177c1.486-1.346,2.306-3.27,2.306-5.417c0-0.773,0.627-1.402,1.397-1.402
		c0.772,0,1.4,0.629,1.4,1.402c0,1.426-0.272,2.78-0.783,4.016h0.807V35.508h-8.353H68.604z"/>
	<path fill="none" d="M84.281,50.13h6.463V35.509l-6.463-0.001V50.13z M86.112,44.927c0-0.771,0.628-1.4,1.399-1.4
		c0.773,0,1.403,0.628,1.403,1.4v2.935c0,0.772-0.63,1.402-1.403,1.402c-0.771,0-1.399-0.63-1.399-1.402V44.927z"/>
	<path d="M91.192,32.708h-8.313l-17.198-0.001l-0.447-0.001c-2.568,0-4.271,0.144-6.254,2.124c-1.579,1.576-5.649,5.771-6.638,6.788
		h-7.526c-1.301,0-2.357,1.057-2.357,2.356v22.217h-5.604c-1.187,0-2.107,0.901-2.537,1.675c-0.896,1.614-4.356,8.336-5.495,10.545
		l-0.337,0.653c-0.222,0.434-0.201,0.959,0.051,1.37c0.256,0.42,0.701,0.67,1.195,0.67h52.401c0.491,0,0.938-0.251,1.198-0.674
		c0.252-0.417,0.268-0.943,0.044-1.37l-0.2-0.386c-3.464-6.654-4.938-9.524-5.563-10.76c-0.432-0.856-1.463-1.725-2.599-1.725h-5.61
		V53.394c0.134,0.003,0.271,0.02,0.401,0.02c3.413,0,6.327-1.002,8.426-2.898c0.238-0.216,0.46-0.443,0.673-0.679h2.574v0.739
		c0,1.299,1.058,2.356,2.356,2.356h7.357c1.301,0,2.356-1.058,2.356-2.356V35.064C93.549,33.765,92.492,32.708,91.192,32.708z
		 M45.262,44.419h12.751c-0.832,1.521-0.42,3.087,0.539,4.117c0.765,0.815,1.878,1.302,2.977,1.302c0.899,0,1.741-0.317,2.434-0.921
		c0.786-0.686,1.738-1.5,2.643-2.268v25.828H45.262V44.419z M74.92,68.99c0.056,0.034,0.161,0.125,0.194,0.189
		c1.076,2.127,3.348,6.503,4.708,9.123H32.028c1.542-2.996,4.038-7.815,4.739-9.078c0.047-0.09,0.127-0.176,0.185-0.231h5.506v3.484
		h-1.422c-0.771,0-1.399,0.628-1.399,1.399c0,0.772,0.628,1.401,1.399,1.401h29.791c0.771,0,1.399-0.628,1.399-1.401
		c0-0.771-0.628-1.399-1.399-1.399h-1.424v-3.484L74.92,68.99z M81.478,47.035h-0.807c0.511-1.235,0.783-2.59,0.783-4.016
		c0-0.773-0.628-1.402-1.4-1.402c-0.771,0-1.398,0.629-1.398,1.402c0,2.147-0.817,4.071-2.305,5.417
		c-1.575,1.424-3.841,2.177-6.552,2.177c-0.129,0-0.265-0.017-0.396-0.021V44.63c0.743,0.192,1.593,0.303,2.45,0.303
		c2.913,0,5.328-1.157,6.623-3.175c0.204-0.315,0.271-0.692,0.191-1.06c-0.08-0.364-0.297-0.675-0.609-0.875
		c-0.628-0.408-1.531-0.209-1.937,0.42c-1.056,1.64-3.099,1.885-4.224,1.885c-1.141,0-2.082-0.241-2.388-0.413
		c-0.498-0.275-1.151-0.211-1.582,0.151c-0.028,0.023-3.582,2.999-5.809,4.939c-0.176,0.151-0.377,0.229-0.604,0.229
		c-0.367,0-0.725-0.208-0.918-0.415c-0.248-0.264-0.454-0.646,0.171-1.27c1.887-1.887,6.662-6.244,8.081-7.534l0.05-0.045
		c0.277-0.251,0.44-0.597,0.459-0.971c0.021-0.374-0.107-0.731-0.359-1.01c-0.112-0.123-0.251-0.212-0.397-0.284h-1.255
		c-0.114,0.055-0.23,0.104-0.326,0.189l-0.063,0.057c-1.082,0.983-4.108,3.742-6.354,5.863h-4.356c1.6-1.644,3.688-3.783,4.71-4.807
		c1.3-1.302,2.292-1.303,4.72-1.304h0.229h1.442h1.255h4.521h8.353L81.478,47.035L81.478,47.035z M90.744,50.13h-6.462V35.508
		l6.462,0.001V50.13z"/>
	<path d="M87.512,49.264c0.773,0,1.403-0.63,1.403-1.402v-2.935c0-0.771-0.63-1.4-1.403-1.4c-0.771,0-1.399,0.628-1.399,1.4v2.935
		C86.112,48.635,86.74,49.264,87.512,49.264z"/>
	<path d="M62.559,51.376c-0.341-0.341-0.824-0.537-1.325-0.537c-0.511,0-0.986,0.194-1.344,0.549l-5.936,6.08l-2.172-2.288
		c-0.679-0.68-1.976-0.68-2.654,0l-2.971,2.971c-0.356,0.353-0.554,0.825-0.554,1.33c0,0.503,0.192,0.971,0.539,1.314l6.454,6.626
		c0.356,0.353,0.827,0.546,1.327,0.546c0.499,0,0.972-0.197,1.332-0.558L65.53,57.002c0.354-0.354,0.55-0.825,0.55-1.326
		c0-0.502-0.195-0.975-0.551-1.328L62.559,51.376z M53.884,64.904l-5.276-5.414l1.702-1.704l2.551,2.687
		c0.268,0.277,0.641,0.439,1.035,0.443c0.385,0,0.757-0.157,1.021-0.43l6.448-6.604l1.712,1.709L53.884,64.904z"/>
</g>
</svg>
