<?xml version="1.0" encoding="utf-8"?>
<!-- Generator: Adobe Illustrator 16.0.0, SVG Export Plug-In . SVG Version: 6.00 Build 0)  -->
<!DOCTYPE svg PUBLIC "-//W3C//DTD SVG 1.1//EN" "http://www.w3.org/Graphics/SVG/1.1/DTD/svg11.dtd">
<svg version="1.1" id="Capa_1" xmlns="http://www.w3.org/2000/svg" xmlns:xlink="http://www.w3.org/1999/xlink" x="0px" y="0px"
	 width="122.926px" height="121px" viewBox="0 0 122.926 121" enable-background="new 0 0 122.926 121" xml:space="preserve">
<rect x="0.653" fill="none" width="121.646" height="121"/>
<circle fill="none" stroke="#000000" stroke-width="3.7" stroke-linecap="round" stroke-linejoin="round" stroke-miterlimit="10" cx="78.47" cy="78.024" r="15.25"/>
<g>
	<path d="M91.251,89.162L91.251,89.162 M91.251,89.162l8.467,8.468c0.722,0.722,0.722,1.894-0.001,2.616
		c-0.36,0.36-0.834,0.541-1.308,0.541s-0.947-0.181-1.309-0.542l-8.551-8.552c0,0,0.794-0.53,1.669-1.405
		C91.288,89.219,91.252,89.163,91.251,89.162 M85.245,93.621l9.239,9.24c1.049,1.049,2.442,1.626,3.925,1.626
		s2.876-0.577,3.924-1.625c2.164-2.164,2.165-5.686,0.001-7.849l-9.177-9.178C92.437,85.114,84.467,92.843,85.245,93.621z"/>
</g>
<line fill="none" stroke="#000000" stroke-width="3.7" stroke-linecap="round" stroke-linejoin="round" stroke-miterlimit="10" x1="84.854" y1="72.774" x2="84.854" y2="83.94"/>
<line fill="none" stroke="#000000" stroke-width="3.7" stroke-linecap="round" stroke-linejoin="round" stroke-miterlimit="10" x1="78.47" y1="75.605" x2="78.47" y2="83.94"/>
<line fill="none" stroke="#000000" stroke-width="3.7" stroke-linecap="round" stroke-linejoin="round" stroke-miterlimit="10" x1="72.086" y1="79.772" x2="72.086" y2="83.94"/>
<path fill="none" stroke="#000000" stroke-width="3.7" stroke-linecap="round" stroke-linejoin="round" stroke-miterlimit="10" d="
	M58.687,95.773c2.395,0,4.734-0.229,7.009-0.646c-5.21-3.897-8.597-10.098-8.597-17.104c0-0.409,0.039-0.809,0.061-1.212
	c-3.762-0.288-7.225-1.632-10.104-3.728L33.611,86.528C40.363,92.289,49.115,95.773,58.687,95.773z"/>
<path fill="none" stroke="#000000" stroke-width="3.7" stroke-linecap="round" stroke-linejoin="round" stroke-miterlimit="10" d="
	M38.903,57.106c0-9.845,7.199-17.987,16.615-19.506V18.579C35.646,20.192,20.02,36.818,20.02,57.106
	c0,9.503,3.435,18.2,9.121,24.933l13.46-13.459C40.283,65.344,38.903,61.392,38.903,57.106z"/>
<path fill="none" stroke="#000000" stroke-width="3.7" stroke-linecap="round" stroke-linejoin="round" stroke-miterlimit="10" d="
	M61.854,18.579V37.6c9.268,1.496,16.374,9.415,16.592,19.054c0.009,0,0.018-0.001,0.025-0.001c7.428,0,13.967,3.794,17.796,9.548
	c0.704-2.918,1.086-5.96,1.086-9.094C97.354,36.818,81.727,20.192,61.854,18.579z"/>
</svg>
