<?xml version="1.0" encoding="utf-8"?>
<!-- Generator: Adobe Illustrator 16.0.0, SVG Export Plug-In . SVG Version: 6.00 Build 0)  -->
<!DOCTYPE svg PUBLIC "-//W3C//DTD SVG 1.1//EN" "http://www.w3.org/Graphics/SVG/1.1/DTD/svg11.dtd">
<svg version="1.1" id="Capa_1" xmlns="http://www.w3.org/2000/svg" xmlns:xlink="http://www.w3.org/1999/xlink" x="0px" y="0px"
	 width="500px" height="500px" viewBox="0 0 500 500" enable-background="new 0 0 500 500" xml:space="preserve">
<path fill="#999999" stroke="#FFFFFF" stroke-miterlimit="10" d="M166.957,306.058c-0.014-0.021-0.027-0.045-0.041-0.066
	C166.93,306.013,166.943,306.035,166.957,306.058z"/>
<path fill="#999999" stroke="#FFFFFF" stroke-miterlimit="10" d="M208.402,323.788c-0.024-0.023-0.045-0.047-0.074-0.069
	C208.357,323.741,208.378,323.765,208.402,323.788z"/>
<path fill="#999999" stroke="#FFFFFF" stroke-miterlimit="10" d="M167.327,306.678c-0.024-0.04-0.047-0.079-0.071-0.12
	C167.28,306.599,167.303,306.638,167.327,306.678z"/>
<path fill="#999999" stroke="#FFFFFF" stroke-miterlimit="10" d="M168.51,308.688c-0.016-0.027-0.035-0.061-0.053-0.091
	C168.475,308.627,168.494,308.659,168.51,308.688z"/>
<path fill="#999999" stroke="#FFFFFF" stroke-miterlimit="10" d="M208.567,324.057c-0.008-0.027-0.014-0.058-0.026-0.085
	C208.554,323.999,208.56,324.028,208.567,324.057z"/>
<path fill="#999999" stroke="#FFFFFF" stroke-miterlimit="10" d="M216.51,329.299c-0.002,0.195,0.017,0.408,0.072,0.658
	C216.526,329.707,216.51,329.496,216.51,329.299z"/>
<path fill="#999999" stroke="#FFFFFF" stroke-miterlimit="10" d="M208.463,324.936c0.007-0.077,0.024-0.158,0.045-0.239
	C208.487,324.776,208.47,324.857,208.463,324.936z"/>
<path fill="#999999" stroke="#FFFFFF" stroke-miterlimit="10" d="M208.576,324.389c0-0.002,0.001-0.003,0.001-0.005
	C208.577,324.386,208.576,324.387,208.576,324.389z"/>
<path fill="#999999" stroke="#FFFFFF" stroke-miterlimit="10" d="M208.589,324.206c-0.001-0.033-0.001-0.067-0.007-0.101
	C208.588,324.139,208.588,324.172,208.589,324.206z"/>
<path fill="#999999" stroke="#FFFFFF" stroke-miterlimit="10" d="M216.508,329.182c0.008-0.157,0.041-0.293,0.082-0.422
	C216.548,328.888,216.517,329.025,216.508,329.182z"/>
<path fill="#999999" stroke="#FFFFFF" stroke-miterlimit="10" d="M208.592,324.243c-0.001,0.025-0.006,0.052-0.008,0.077
	C208.587,324.295,208.591,324.27,208.592,324.243z"/>
<path fill="#999999" stroke="#FFFFFF" stroke-miterlimit="10" d="M208.137,323.603c0.039,0.021,0.066,0.04,0.1,0.062
	c-0.033-0.021-0.06-0.04-0.098-0.061C208.139,323.604,208.138,323.603,208.137,323.603z"/>
<path fill="#999999" stroke="#FFFFFF" stroke-miterlimit="10" d="M208.459,323.842c0.02,0.023,0.031,0.048,0.045,0.071
	C208.49,323.89,208.479,323.865,208.459,323.842z"/>
<path fill="#999999" stroke="#FFFFFF" stroke-miterlimit="10" d="M208.463,324.939c-0.02,0.262,0.082,0.491,0.619,0.643
	C208.546,325.432,208.443,325.201,208.463,324.939z"/>
<path fill="#999999" stroke="#FFFFFF" stroke-miterlimit="10" d="M208.577,324.384c0.004-0.021,0.005-0.042,0.007-0.063
	C208.582,324.342,208.581,324.362,208.577,324.384z"/>
<path fill="#999999" stroke="#FFFFFF" stroke-miterlimit="10" d="M208.582,324.105c-0.002-0.018-0.01-0.032-0.015-0.05
	C208.572,324.073,208.579,324.089,208.582,324.105z"/>
<path fill="#999999" stroke="#FFFFFF" stroke-miterlimit="10" d="M198.957,314.332c-1.188-1.188-5.25-4.25-6.313-5.313
	c-1.063-1.063-2,0.688-3.25-0.563s-2.375-4-3.25-4s-2,0.813-3.25,0.813s-2.313,1.813-3.719,2.594
	c-1.406,0.78-1.031,1.344-2.344,1.344s-1.25-0.5-2.125-0.5s-1.969,1.344-2.594,0.469s-1.719-0.844-3.406-0.156
	c-0.979,0.979-2.083,2.127-3.469,2.127c-1.386,0-0.447,2.915-0.447,3.75c0,4.084,6.167,0.665,6.167,3.082
	c0,2.418-4.583,2.335-4.583,6c0,3.666,5,7.835,7.667,8.834c2.667,1,6.249,0.084,6.249,4.834s6.584,6.75,6.584,8.582
	c0,1.834-1.334,2.585-4.25,2.585s-5.417-0.835-7.667,0.665s-3.167,3.168-5.75,4.834s-33.084,15.666-33.084,15.666
	s-21.833-8.416-26.166-9c-1.917,3.916-4.25,3.916-4.25,5.416s5.124,2.375,5.124,5.625s-1.373,5-5.124,5s-2.501,3-1.501,3
	s0.438,2.313,1.625,3.5c1.187,1.188-1.75,3.375-1.75,4.5s1.375,3.375,5.75,4.75s2.813,3.563,2.125,4.25
	c-0.688,0.688-0.188,2.688-1.125,3.625c-0.937,0.938-2,3.625,0.5,4.375s1.875-1.625,3.5,0s7.625,11.25,7.625,11.25s0,6.75,0,9.25
	s2,3.125,2.688,5.938c0.688,2.813-1.156,5.656,0,6.813c1.156,1.157,4.438,2.125,4.438,4.625s1.375,2.938,1.375,4.125
	c0,1.188-1.063,1.438-1.063,2.875c0,1.438,2.875,3.188,2.875,6.563s-1.5,2.625-1.5,6.125s4.375,4.375,5.438,4.375
	c9.063,0,10.875-1.438,14-1.438s2.813-2.688,3.938-3.813s2.625-2,2.625-4.375s1.469-1.656,3.438-3.625
	c1.969-1.969,2.875-0.5,3.813-1.438c0.938-0.938,0.188-5.875,1.25-6.938c1.062-1.063,1.75-0.438,3.188-0.438
	s3.688-2.313,6.313-2.313s2.375-1.813,3.25-1.813s1.188-2.25,1.188-4.063c0-1.813,0.875-2.031,0.875-3.563
	c0-1.531-0.5-2.375,1.188-1.75s2.313,1.938,3.5,1.938s0.688,2.063,1.938,2.063s2.563-0.063,3.188,1.625
	c0.625,1.688,2.875,2.625,3.563,4.25c1.938,0,19.667-0.708,19.667-0.708c0-2.417-5.166-8.415-5.166-10.25
	c0-1.834,1.25-3,2.187-4.833s0,0.042,0-3.396c-4.125-1.625-7.063-4.938-7.063-9.188s1-3.625,1-8.875s4.313-9,4.313-13.188
	c0-4.188-2.125-6.125-2.125-9.75s2-1.563,2-5.563c0-2,1.813-1.625,3.25-3.063c1.188-1.188,4.219,0.656,5.625-0.75
	c2.281-2.281,3.5-0.813,4.406-2.156c0.906-1.343,2.969-3.594,3.906-4.531c0.937-0.937-2.875-3.5-2.875-6.5s-1.188-5.625-3.75-5.625
	s-4.688,1.375-6.938,0s-4.188-1.938-5.75-3.5c-1.562-1.562-0.219-2.405-1.25-3.438c-1.031-1.032-3.063-1.125-3.063-3.563
	c0-1.563,1.438-1.313,1.438-3.688c0-2.563-0.75-1-0.75-3.125c0-3,3.688-1.75,1.688-3.75s-4.719,1.844-5.625,0.938
	c-0.906-0.905-0.064-1.188,0.313-1.564s0.781-2.466-0.188-3.436c-0.969-0.969,0.563-3.625-0.875-4.25s-2.438-1.688-1.375-2.75
	c1.063-1.062,2.531,0.156,3.563,1.188c1.032,1.032,3.156-0.094,3.688,0.438c0.532,0.532,1.688,0.5,3.563,1.063
	c0.148,0.045,0.266,0.094,0.367,0.146C204.943,321.248,200.145,315.52,198.957,314.332z"/>
<path fill="#999999" stroke="#FFFFFF" stroke-miterlimit="10" d="M216.648,328.59c-0.024,0.053-0.041,0.112-0.059,0.17
	C216.607,328.702,216.624,328.643,216.648,328.59z"/>
<path fill="#999999" stroke="#FFFFFF" stroke-miterlimit="10" d="M216.51,329.299c0-0.038-0.004-0.081-0.002-0.117
	C216.506,329.219,216.51,329.261,216.51,329.299z"/>
<path fill="#999999" stroke="#FFFFFF" stroke-miterlimit="10" d="M208.508,324.695c0.023-0.103,0.052-0.204,0.068-0.308
	C208.56,324.491,208.531,324.594,208.508,324.695z"/>
<path fill="#999999" stroke="#FFFFFF" stroke-miterlimit="10" d="M208.463,324.939c0-0.002,0-0.004,0-0.005
	C208.463,324.938,208.463,324.938,208.463,324.939z"/>
<path fill="#999999" stroke="#FFFFFF" stroke-miterlimit="10" d="M208.402,323.788c0.018,0.018,0.041,0.035,0.057,0.054
	C208.443,323.823,208.42,323.806,208.402,323.788z"/>
<path fill="#999999" stroke="#FFFFFF" stroke-miterlimit="10" d="M167.256,306.558c-0.098-0.161-0.197-0.329-0.299-0.5
	C167.059,306.229,167.159,306.396,167.256,306.558z"/>
<path fill="#999999" stroke="#FFFFFF" stroke-miterlimit="10" d="M166.581,305.438c0.114,0.188,0.226,0.371,0.335,0.554
	C166.807,305.809,166.696,305.626,166.581,305.438L166.581,305.438z"/>
<path fill="#999999" stroke="#FFFFFF" stroke-miterlimit="10" d="M168.457,308.597c-0.277-0.472-0.667-1.141-1.13-1.919
	C167.791,307.459,168.18,308.124,168.457,308.597z"/>
<path fill="#999999" stroke="#FFFFFF" stroke-miterlimit="10" d="M208.589,324.206c0.001,0.013,0.003,0.024,0.003,0.037
	C208.592,324.23,208.59,324.219,208.589,324.206z"/>
<path fill="#999999" stroke="#FFFFFF" stroke-miterlimit="10" d="M208.541,323.972c-0.009-0.021-0.025-0.039-0.037-0.059
	C208.516,323.933,208.532,323.951,208.541,323.972z"/>
<path fill="#999999" stroke="#FFFFFF" stroke-miterlimit="10" d="M208.328,323.719c-0.026-0.02-0.062-0.037-0.092-0.056
	C208.267,323.682,208.302,323.699,208.328,323.719z"/>
<path fill="#999999" stroke="#FFFFFF" stroke-miterlimit="10" d="M168.707,309.02c-0.056-0.093-0.123-0.204-0.197-0.332
	C168.584,308.813,168.652,308.928,168.707,309.02z"/>
<path fill="#999999" stroke="#FFFFFF" stroke-miterlimit="10" d="M249.54,405.853c-0.854-0.854-1.916-3.04-4.25-3.04
	s-1.729,1.604-2.646,3.271s-0.438,2.979-1.104,3.646c-0.666,0.668-0.896,0.293-3.271,0.293s-0.188-1.75-5.5-1.75
	c-1.489,0-2.362-2.438-3.672-3.798c-0.504-0.522-1.071-0.891-1.766-0.891c-2.5,0-0.875,5.188-3.813,5.188s-2.563-3.063-5.188-3.063
	s-0.563-1.375-2.125-1.375s-3-0.75-3,1.375s-0.75,2.75-0.75,5.375s-1.438,7-1.813,11c0,3.438,0.937,1.563,0,3.396
	c-0.937,1.834-2.187,2.999-2.187,4.834c0,1.834,5.166,7.832,5.166,10.25c2.334,0,3.614-0.387,4.771,0.771
	c1.157,1.157,2.813-0.688,4.375,0.875s2.625,1.313,4.5,1.313s1.656,1.28,2.688,2.313c1.032,1.032,0.188,2,1.25,4.563
	c1.062,2.563-0.063,3.375,2.188,4.375c1.129,0.895,0.938,2.5,0.938,4.063s1.313,1.938,2.125,3.375s0.625,3.25,1.375,3.25
	s0.875-0.688,0.875-3.25s0.938-1.813,0.938-4.375s1-3.5,2.063-4.563c1.063-1.063,2.25-1.5,2.25-3.813s1.25-2.438,2.813-5.938
	s1.063-5.688,4.625-5.688c3.563,0,2.188,1.688,4,1.688c1.813,0,0.688-1.75,2.438-1.75s23.75,0.188,24.938,0.188
	c1.188,0,0.063,2.625,0.563,3.75s1.813,1.375,2.5,2.063c0.688,0.688,0.938,1.938,2.063,1.938s11.979-39.729,11.979-39.729
	S252.04,405.853,249.54,405.853z"/>
<path fill="#999999" stroke="#FFFFFF" stroke-miterlimit="10" d="M180.291,337.646c0-4.75-3.582-3.834-6.249-4.834
	s-7.667-5.168-7.667-8.834c0-3.665,4.583-3.582,4.583-6c0-2.416-6.167,1.002-6.167-3.082c0-0.835-0.938-3.75,0.447-3.75
	c1.385,0,2.49-1.147,3.469-2.127c-0.362-0.604-1.15-1.979-2.126-3.582c-1.548-2.549-3.571-5.677-5.124-7.229
	c-2.531-2.531-3.688-1.438-3.916-2.937c-1.5,0-3.333-5-4.5-5s-1.917,0.375-2.876,0.375s-3.832,2.916-9.499,6.666
	s-6.916,3.666-6.916,4.541s1.125,0.834,1.125,1.834s-0.292,2.209-2.167,2.209s-6.583-5.209-11.042-6.418s-8.25-0.416-9.875-0.416
	s-7.313,7.563-8.708,8.959c-1.395,1.395-3.708,2.707-5.625,2.707s-1.833,1.584-4.042,1.584c0,1.834-2.375,1.834-2.375,3.916
	c0,2.083,1.917,1.668,1.917,3.25c0,1.584-0.813,3.896,0.458,5.168c1.271,1.271,1.209,4.25,1.209,7s1.416,0.415,1.416,3.332
	c0,2.918,1.5-0.166,1.5,3.334s-1.416,1.334-1.416,3.084s2.083,1,2.083,2.5s1.083,2.334,2.5,2s1.583,2.083,3.333,2.583
	s2.167,0.584,2.167,2.084s3.082,1.247,4.041,2.207c0.959,0.959,3.209,1.958,3.209,3.042s-2.166,1.667-3.5,5.167
	c4.333,0.583,26.166,9,26.166,9s30.501-14.001,33.084-15.667s3.5-3.333,5.75-4.833s4.751-0.666,7.667-0.666s4.25-0.751,4.25-2.584
	S180.291,342.396,180.291,337.646z"/>
<path fill="#999999" stroke="#FFFFFF" stroke-miterlimit="10" d="M208.328,323.719c-0.02-0.015-0.046-0.027-0.07-0.042
	c0.078,0.05,0.146,0.104,0.192,0.157c-0.015-0.016-0.033-0.031-0.048-0.046C208.378,323.765,208.357,323.741,208.328,323.719z"/>
<path fill="#999999" stroke="#FFFFFF" stroke-miterlimit="10" d="M208.592,324.243c0-0.008-0.001-0.017-0.002-0.023
	c0,0.041-0.003,0.083-0.008,0.124c0-0.008,0.001-0.016,0.002-0.022C208.587,324.295,208.591,324.27,208.592,324.243z"/>
<path fill="#999999" stroke="#FFFFFF" stroke-miterlimit="10" d="M208.563,324.039c0.002,0.01,0.006,0.02,0.009,0.03
	c-0.001-0.005-0.003-0.01-0.004-0.014C208.566,324.051,208.563,324.045,208.563,324.039z"/>
<path fill="#999999" stroke="#FFFFFF" stroke-miterlimit="10" d="M208.518,324.649c-0.023,0.093-0.044,0.186-0.053,0.273
	c0.008-0.074,0.023-0.151,0.043-0.229C208.512,324.68,208.515,324.664,208.518,324.649z"/>
<path fill="#999999" stroke="#FFFFFF" stroke-miterlimit="10" d="M209.082,325.582c-0.121-0.034-0.213-0.073-0.293-0.114
	C208.869,325.509,208.961,325.548,209.082,325.582z"/>
<path fill="#999999" stroke="#FFFFFF" stroke-miterlimit="10" d="M208.475,325.105c-0.01-0.052-0.015-0.104-0.012-0.158
	C208.46,325.002,208.465,325.055,208.475,325.105z"/>
<path fill="#999999" stroke="#FFFFFF" stroke-miterlimit="10" d="M208.734,325.438c-0.07-0.041-0.129-0.086-0.169-0.134
	C208.605,325.352,208.664,325.396,208.734,325.438z"/>
<path fill="#999999" stroke="#FFFFFF" stroke-miterlimit="10" d="M208.564,325.303c-0.041-0.05-0.064-0.103-0.08-0.156
	C208.5,325.2,208.523,325.253,208.564,325.303z"/>
<path fill="#999999" stroke="#FFFFFF" stroke-miterlimit="10" d="M269.958,388.896c-1.834,0-1.345-2.782-2.438-3.877
	c-1.092-1.094-0.625,1.375-2.75,1.375s0.313,1.625-2.563,1.625c-1.063,0-1.969,1.22-3.5-0.313s-1.125-3.75-1.125-12.875
	c0-2.188-1.25-2-1.25-3.563c0-1.563,0.125-11.125,0.125-13.938c0-2.813-1.125-4.688-1.125-7.125c0-2.438-0.188-5,0.688-5
	c0.877,0,0.906-1.969,0.375-2.5c-0.53-0.531-3.405-1.094-4.813,0.313c-1.407,1.407-0.125,3.438-2.375,3.438
	s-0.656-2.031-2.938-4.313c-2.282-2.281-2-0.438-3.875-3.5c-1.875-3.062-3.313-3.563-3.313-5.188s-0.25-2.5-0.25-2.5
	c-1.75,0-1.313-1.875-2.813-1.875s-3.063,1.875-4.25,1.875s-2.844-2.844-4.188-4.188c-1.344-1.344-2.969-0.594-3.688-1.313
	c-0.531-0.531-1.814-0.683-3.08-0.096c-0.445,0.207-0.888,0.501-1.295,0.907c-1.145,1.146-2.448,1.392-2.871,2.32
	c-0.024,0.053-0.041,0.112-0.059,0.17c-0.042,0.128-0.073,0.267-0.082,0.422c-0.002,0.037,0.002,0.079,0.002,0.117
	c-0.002,0.195,0.017,0.408,0.072,0.658c0.5,2.25-1.438,0.938-2.313,0.063s-3,0.125-3.438-1.25s-0.188-2.75-1.75-3.188
	c-0.121-0.034-0.213-0.073-0.293-0.114c-0.02-0.01-0.037-0.021-0.055-0.03c-0.07-0.042-0.129-0.086-0.169-0.134
	c-0.001-0.001-0.001-0.001-0.001-0.001c-0.041-0.05-0.064-0.103-0.08-0.157c-0.004-0.014-0.008-0.025-0.01-0.04
	c-0.01-0.051-0.015-0.104-0.012-0.157c0.001-0.002,0-0.005,0-0.008c0-0.002,0-0.004,0-0.005c0-0.004,0.002-0.008,0.002-0.012
	c0.009-0.089,0.029-0.182,0.053-0.273c0.021-0.088,0.045-0.175,0.059-0.262c0-0.002,0.001-0.003,0.001-0.005
	c0.003-0.014,0.003-0.025,0.005-0.04c0.005-0.041,0.008-0.083,0.008-0.124c0-0.004,0-0.009-0.001-0.014
	c-0.001-0.033-0.001-0.067-0.007-0.102c-0.002-0.013-0.007-0.023-0.011-0.035c-0.003-0.012-0.007-0.021-0.009-0.03
	c-0.006-0.022-0.012-0.046-0.021-0.067c-0.009-0.021-0.025-0.039-0.037-0.059c-0.014-0.023-0.025-0.048-0.045-0.071
	c-0.002-0.003-0.006-0.006-0.009-0.008c-0.047-0.055-0.114-0.107-0.192-0.157c-0.008-0.005-0.014-0.009-0.021-0.014
	c-0.033-0.021-0.06-0.04-0.098-0.061c0,0-0.001-0.001-0.002-0.001c-0.102-0.052-0.219-0.101-0.367-0.146
	c-1.875-0.563-3.031-0.531-3.563-1.063c-0.532-0.531-2.656,0.595-3.688-0.438c-1.032-1.032-2.5-2.25-3.563-1.188
	c-1.063,1.063-0.063,2.125,1.375,2.75s-0.094,3.281,0.875,4.25c0.969,0.97,0.564,3.059,0.188,3.436s-1.219,0.659-0.313,1.564
	c0.906,0.906,3.625-2.938,5.625-0.938s-1.688,0.75-1.688,3.75c0,2.125,0.75,0.563,0.75,3.125c0,2.375-1.438,2.125-1.438,3.688
	c0,2.438,2.031,2.531,3.063,3.563c1.032,1.032-0.313,1.875,1.25,3.438c1.563,1.563,3.5,2.125,5.75,3.5s4.375,0,6.938,0
	s3.75,2.625,3.75,5.625s3.813,5.563,2.875,6.5c-0.938,0.938-3,3.188-3.906,4.531c-0.906,1.343-2.125-0.125-4.406,2.156
	c-1.406,1.406-4.438-0.438-5.625,0.75c-1.438,1.438-3.25,1.063-3.25,3.063c0,4-2,1.938-2,5.563s2.125,5.563,2.125,9.75
	c0,4.187-4.313,7.938-4.313,13.188s-1,4.625-1,8.875s2.938,7.563,7.063,9.188c0.375-4,1.813-8.375,1.813-11s0.75-3.25,0.75-5.375
	s1.438-1.375,3-1.375s-0.5,1.375,2.125,1.375s2.25,3.063,5.188,3.063s1.313-5.188,3.813-5.188c0.694,0,1.262,0.367,1.766,0.891
	c1.31,1.358,2.183,3.797,3.672,3.797c5.313,0,3.125,1.75,5.5,1.75s2.604,0.375,3.271-0.292s0.188-1.979,1.104-3.646
	s0.312-3.271,2.646-3.271s3.396,2.188,4.25,3.041c2.5,0,50.334,0.126,50.334,0.126v-14.583l1.5-2.5h-31.414V388.896z"/>
<path fill="#999999" stroke="#FFFFFF" stroke-miterlimit="10" d="M208.565,325.304C208.564,325.303,208.564,325.303,208.565,325.304
	C208.564,325.303,208.564,325.303,208.565,325.304z"/>
<path fill="#999999" stroke="#FFFFFF" stroke-miterlimit="10" d="M208.484,325.146c-0.004-0.015-0.008-0.026-0.01-0.04
	C208.477,325.119,208.48,325.132,208.484,325.146z"/>
<path fill="#999999" stroke="#FFFFFF" stroke-miterlimit="10" d="M208.465,324.924c0,0.004-0.002,0.008-0.002,0.012
	c0,0.002,0,0.004,0,0.005c0,0.003,0.001,0.006,0,0.008C208.464,324.939,208.465,324.932,208.465,324.924z"/>
<path fill="#999999" stroke="#FFFFFF" stroke-miterlimit="10" d="M208.789,325.468c-0.02-0.01-0.037-0.021-0.055-0.03
	C208.752,325.447,208.77,325.458,208.789,325.468z"/>
<path fill="#999999" stroke="#FFFFFF" stroke-miterlimit="10" d="M216.648,328.589c-0.154,0.34-0.2,0.767-0.066,1.368
	c-0.056-0.25-0.074-0.463-0.072-0.658c0-0.038-0.004-0.08-0.002-0.117c0.009-0.155,0.04-0.294,0.082-0.422
	C216.607,328.702,216.624,328.643,216.648,328.589c0.423-0.929,1.727-1.175,2.871-2.319
	C218.375,327.414,217.072,327.659,216.648,328.589z"/>
<path fill="#999999" stroke="#FFFFFF" stroke-miterlimit="10" d="M208.45,323.834c0.003,0.002,0.007,0.005,0.009,0.008
	c0.02,0.023,0.031,0.048,0.045,0.071c0.012,0.02,0.028,0.038,0.037,0.059c0.01,0.021,0.016,0.045,0.021,0.067
	C208.541,323.969,208.507,323.899,208.45,323.834z"/>
<path fill="#999999" stroke="#FFFFFF" stroke-miterlimit="10" d="M208.577,324.384c0,0.002-0.001,0.003-0.001,0.005
	c-0.014,0.087-0.037,0.175-0.059,0.262c0.025-0.103,0.051-0.203,0.064-0.307C208.58,324.357,208.58,324.37,208.577,324.384z"/>
<path fill="#999999" stroke="#FFFFFF" stroke-miterlimit="10" d="M208.236,323.663c0.008,0.005,0.014,0.009,0.021,0.014
	c-0.037-0.023-0.072-0.05-0.119-0.073C208.177,323.623,208.203,323.643,208.236,323.663z"/>
<path fill="#999999" stroke="#FFFFFF" stroke-miterlimit="10" d="M208.582,324.105c0.006,0.032,0.006,0.066,0.007,0.101
	c0.001,0.005,0.001,0.01,0.001,0.014c0-0.051-0.007-0.101-0.019-0.149C208.575,324.081,208.58,324.093,208.582,324.105z"/>
<path fill="#999999" stroke="#FFFFFF" stroke-miterlimit="10" d="M201.75,66.103c0,0.833-0.438,0.563-1.042,1.167
	s-0.916,0.833-1.833,0.833s-1.792,2.167-2.917,2.167s-1.854-0.313-2.5,0.333s0.563,2.354-0.208,3.125s-0.668,1.667-2.084,1.667
	s-1.053-0.969-1.678-0.969s-1.156-0.375-1.656,0.125s0.406,1.184,0.406,1.779c0,0.595,1.063,0.096,1.063,1.283
	s-0.781,1.438-1.531,0.688c-0.5-0.5-1.375-0.781-2.156-0.781c-0.781,0-1.656,0.281-1.656,0.875s-1.156,0.313-1.156,0.875
	s0.656,0.656,0.656,1.344c0,0.688-0.719,1.219-0.719,2.094s-1.063,0.906-1.063,1.563s-0.656,1.344-0.656,2.344
	s-0.5,1.281-0.906,1.281c-0.406,0-1.031-0.125-1.031,2.063c0,0.938-0.625,0.781-0.625,1.281s-1.188,0.406-1.188,1.094
	s-0.688,1.531,0.219,1.531c0.907,0,0.656,1.781-0.906,1.781c-0.594,0-1-0.063-1,0.594c0,0.906-0.844,0.813-1.594,0.813
	s-1.094,0.75-1.594,0.75s-0.703,0.547-1.125,0.969s-0.844,0.375-2.313,0.375c-1.469,0-1.344-0.594-2.188-0.594
	c-0.844,0-1.094,0.125-1.719,0.75s-1.156,0.094-1.156,1.625c0,1.531-0.938,1.188-0.938,2.844c0,1.656,0.75,0.938,0.75,1.906
	c0,0.968-0.688,1.063-1.844,1.063c-1.156,0-1.875-0.094-1.875,0.594s-1.688-0.125-1.688,0.719c0,0.844-0.938-0.063-0.938,1.063
	s0.531,1,0.531,1.656c0,0.656-0.797,0.484-1.063,0.75c-0.266,0.266-1.813-0.031-1.813,1c0,1.031-0.531,1.656,0.75,1.656
	c0.938,0-0.253,0.938,0.969,0.938c0.938,0,0.219,1.281,0.563,1.625c0.344,0.344,0.094,1.875,0.781,1.875s0.781,0.719,0.781,1.063
	c0,0.344-0.969,0.469-0.969,0.938c0,0.469-0.688,0.625-0.688,1.438s0.906,1.063,0.906,2.188s-0.969,0.594-0.969,1.5
	c0,0.906,0.375,0.75,0.375,1.688s-0.516,0.984-1.031,1.5c0,1.114-0.739,2.136-0.739,3.178s1.75,0.417,1.75,1.542
	s-1,1.833-1.583,2.75s0,3.792-0.5,7.583s-1.25,5.834-2.208,5.834s-1.667,0.083-2.501,2.124s-3.916,5.251-6,7.335
	c-2.084,2.084-1.749,3.124-1.749,4.374s1.083,2.875,1.083,3.75s-1,0.792-1,1.5s-0.25,1.542-1.478,2.688s-1.23,2.688-1.23,4.188
	s-1,3.333-1,4.583c0,1.25-1.25,2.167-1.25,3.25c0,1.083,0.375,2.084,0.375,3.834s1.167,1.041,1.167,2.59
	c0,1.549-2.167,1.826-2.167,2.784s1.208,0.834,1.208,2.084s1.084,0.75,1.084,2.625s-1.417,2.333-1.417,3.292
	c0,0.959,2.021,2.479,3.667,4.125c1.646,1.646,0.583,4.5,0.583,6.208c0,1.708,0.75,2.75,3.042,2.75s2.666,1.708,3.125,2.833
	s1.958,1.75,3,4.375s-0.293,3.293,1.374,4.959c1.667,1.666,0.875,2.583,3.792,4.666s4.292,3.75,5.542,5
	c1.833,1.832,3.124,3.874,5.874,5.624s2.874,3.208,4.041,6.375c1.167,3.167,1.918,1.417,4.584,5
	c2.666,3.584,11.416,7.834,13.333,7.834s4.001,0.25,7.417-1.416c3.416-1.668,8.334-1.25,10.5-6.168c2.166-4.917-0.083-7.417,4-11.5
	c3.083,0,11.563-1.146,15.125-1.146c0,0,38.5,2.063,41.25,2.063c-2.813-2.813-3.041-2.416-3.041-4.333s-4.418-4.418-5.834-5.084
	s-0.25-1.834-1.333-3.75s-2.333-0.916-3.083-1.666s0.667-1.333-0.5-2.5c-1.167-1.167-2.75-2.418-2.75-4.251
	s-2.082-3.332-2.666-4.666s0.666-3,0.666-5.167s1.25-0.833,1.25-2.75s-2.876-2.374-1.667-3.583s4.833-1,7.917-2
	s64.25-36.25,64.25-36.25c-2.479,1.313-5.146,0.375-6.334,0.375s-0.719-2.844-1.375-3.5c-0.656-0.656-2.063,0.5-3-1.667
	s-1.5-1.646-2.625-2.771s-2.531-1.031-1.188-2.375c1.342-1.344-0.625-2.25-1.813-2.25s-0.875-1.375-2.313-1.375
	c-1.438,0-1.5,1.375-3.25,1.375s-2.688-0.625-2.688-1.5s-1.5-2.313-3.063-1.688c-1.563,0.625-3.438,0.063-3.438-1.063
	s-0.875-2.188-2.375-2.188s-1.5,1.063-2.438,1.063c-0.938,0-0.938-1.375-1.875-1.688c-0.937-0.313-1.219-1.406-2.25-2.438
	c-1.031-1.032-2.063,0.875-2.438-0.813s-0.938-0.625-1.563-2.5s-0.47-3.031-1.563-4.125c-1.095-1.094-2.375-0.625-3,0.938
	s-1.688,2.25-3.438,1.625s-2.188-0.313-3.375-2.375c-1.187-2.062-1.844-2.625-3.375-2.625s-3.531-1.344-4.75-2.563
	c-1.219-1.219-3.625-0.313-5.375-0.313s-1.75,2.5-2.875,2.5c-1.125,0-2.049-0.389-2.938-1.278c-0.889-0.889-1.563,0.278-2.813,0.278
	s-1.875-1.125-2.563-1.125c-0.688,0-0.75,0.847-1.75,0.847s-1.688-1.159-3.125-1.159c-1.437,0-1.625-0.813-2.375-2.375
	s-1.563-0.625-1.938-1.625s2.5-1.938,0-3.813s-4.188-0.5-4.75-1.063c-0.562-0.563,0.25-2.25-0.75-2.25s-0.625,0.875-1.813,0.875
	s-1.063-3-2.5-3.688s-4.438,0-5.313-0.875s-0.75-2.188-0.75-3.563s-1.063-0.813-1.438-3s-0.938-1-1.438-2.188
	s-0.875-0.25-1.375,0.25s-2.063,0.938-2.375-0.813s0.938-1.688,0.938-2.875s-0.656-1.156-1.063-1.563
	c-0.407-0.407-0.313-2.063-1.125-2.063s-2.375-0.125-2.938-1.813s0.438-2.75,0-4.063s-1.125-1.063-1.125-2.813s-1.125,0.063-1.125-2
	s1.125-2.125,1.813-2.813s-0.438-2.063,0.688-2.438s2.688-1.625,1.001-2.438s-0.376-1.813-1.313-2.75s-2.188-1-2.188-2.563
	s1.313-1.813,1.313-3.313s-2.063-0.25-2.063-2.188s-0.563-1.688-0.563-2.938s2-1.438,2-2.5s-0.52-2.25-0.52-2.25
	C202.291,64.52,201.75,65.27,201.75,66.103z"/>
<path fill="#999999" stroke="#FFFFFF" stroke-miterlimit="10" d="M321.791,166.395c0.098-0.028,0.175-0.05,0.262-0.075
	C321.969,166.326,321.883,166.346,321.791,166.395z"/>
<path fill="#999999" stroke="#FFFFFF" stroke-miterlimit="10" d="M207.083,47.905c0-0.823-1.667-1.427-1.667-2.302
	s-1.166-1.708-1.458-2.417s-0.333-0.917-1.042-0.917s-1.208,0.416-1.208,0.875s-1.083,0.834-1.083,1.583s-0.813,1.395-1.292,1.875
	s-0.417,1.042-1.25,1.042s-0.396-0.396-0.917-0.917s-0.938-0.021-1.416-0.5c-0.916-0.917-0.875-1.708-3.334-1.708
	c-1.5,0-1.542,0.875-2.833,0.875s-1.125-0.458-2.75-0.458s-2.542,1.625-3.125,1.625s-0.98-0.021-1.542-0.583s-2.125,0-2.917,0
	s-1.375,1.542-2.166,1.542s-1.917,0-3,0s-2.167,1.75-2.875,1.75s-4.083,0.208-5.792,0.208c-4.959,2.416-12.542,9.959-14.25,12.292
	c0,0-1.083,0.208-2.208,0.208s-0.75,1.542-1.834,1.542s-1.416-0.833-2.583-0.833s-1.458,1-1.458,1.792s-1.625,1.167-2.625,1.167
	s-0.667,1.167-1.667,2.167s-1.792,0.333-3.292,1.042s-1.208,2.625-2.25,3s-1.5,1.375-1.5,2.333s-0.666,2.144-1.791,2.144
	s-1.084-1.519-2.209-1.519s-5.708,0-7.375,0s-2.104,1.833-2.104,2.771s-1.875,2.188-2.813,3.125s-0.438,1.938-1.25,2.75
	s-1.625,2.813-2.813,2.813s-1.594,0.344-2.188,0.938c-0.594,0.594-2.5,0.313-3.375,0.313s-2.75,2.313-4.25,2.313s-1.375,1-2.125,1
	s-1.5,0.188-1.5-0.375s-0.875-0.938-0.875-1.813s1.469-1.656,0.5-2.625c-0.969-0.969-1.25,0.563-3.625,0.563s-2.438-1.25-3.438-1.25
	s-4.375,0.25-5.188,0.25s-0.688-1-1.5-1s-2.625,0.438-3.375,0.438s-0.875-0.875-1.938-0.875s-1,1.25-1.938,1.25
	c-5.125,0-4.25,0.625-4.25,0.625s15.25,23.75,18,27.625c1.875,3.75,11.25,21.25,11.25,21.25s1.251-0.25,1.959-0.958s0.375-3,1.917-3
	s-0.126,1.083,2.187,1.083s2.531-5.281,3.781-6.531s2.844-0.781,2.844-2.094c0-2.25-0.938-3.563,0.813-5.313
	s3.625-1.188,5.188-1.188s3.188-2.688,3.625-2.688c0.197,0,6.703,3.081,13.852,6.424c8.748,4.093,18.459,8.579,18.742,8.295
	c0.516-0.516,1.031-0.563,1.031-1.5s-0.375-0.781-0.375-1.688c0-0.907,0.969-0.375,0.969-1.5s-0.906-1.375-0.906-2.188
	c0-0.813,0.688-0.969,0.688-1.438c0-0.469,0.969-0.594,0.969-0.938c0-0.344-0.094-1.063-0.781-1.063s-0.438-1.531-0.781-1.875
	c-0.343-0.344,0.375-1.625-0.563-1.625c-1.222,0-0.031-0.938-0.969-0.938c-1.281,0-0.75-0.625-0.75-1.656
	c0-1.031,1.547-0.734,1.813-1s1.063-0.094,1.063-0.75c0-0.656-0.531-0.531-0.531-1.656s0.938-0.219,0.938-1.063
	c0-0.844,1.688-0.031,1.688-0.719s0.719-0.594,1.875-0.594c1.156,0,1.844-0.094,1.844-1.063c0-0.969-0.75-0.25-0.75-1.906
	c0-1.656,0.938-1.313,0.938-2.844c0-1.531,0.531-1,1.156-1.625s0.875-0.75,1.719-0.75c0.844,0,0.719,0.594,2.188,0.594
	s1.891,0.047,2.313-0.375s0.625-0.969,1.125-0.969s0.844-0.75,1.594-0.75s1.594,0.094,1.594-0.813c0-0.656,0.406-0.594,1-0.594
	c1.563,0,1.813-1.781,0.906-1.781c-0.907,0-0.219-0.844-0.219-1.531s1.188-0.594,1.188-1.094s0.625-0.344,0.625-1.281
	c0-2.188,0.625-2.063,1.031-2.063c0.406,0,0.906-0.281,0.906-1.281s0.656-1.688,0.656-2.344c0-0.656,1.063-0.688,1.063-1.563
	s0.719-1.406,0.719-2.094s-0.656-0.781-0.656-1.344s1.156-0.281,1.156-0.875c0-0.594,0.875-0.875,1.656-0.875
	c0.781,0,1.656,0.281,2.156,0.781c0.75,0.75,1.531,0.5,1.531-0.688s-1.063-0.688-1.063-1.283c0-0.595-0.906-1.279-0.406-1.779
	s1.031-0.125,1.656-0.125s0.262,0.969,1.678,0.969s1.313-0.896,2.084-1.667s-0.438-2.479,0.208-3.125s1.375-0.333,2.5-0.333
	s2-2.167,2.917-2.167s1.229-0.229,1.833-0.833s1.042-0.333,1.042-1.167s0.541-1.583,2-1.583c1.792,0,1.625-0.708,2.291-1
	s1.042,0.042,1.042-4.333c0-5.958-1.417-5.75-1.417-7.75S207.083,48.729,207.083,47.905z"/>
<path fill="#999999" stroke="#FFFFFF" stroke-miterlimit="10" d="M164.458,263.146c-1.5-1.709-1.708-1.668-1.708-5.084
	c0-2.072-1.287-3.205-1.833-4.002c-0.146-0.213-0.251-0.406-0.251-0.582c0-0.832,0.917-0.916,0.917-1.875
	c0-0.957-1.75-0.998-1.75-2.291c0-1.292-1.125-0.625-1.125-1.667s0.833-1.21,0.833-2.251s0.959-0.499,0.959-1.874
	s-2.084-1.792-2.084-3.042s3.167-3.875,4.042-4.75c-1.25-1.25-2.625-2.917-5.542-5s-2.125-3-3.792-4.666s-0.332-2.334-1.374-4.959
	s-2.541-3.25-3-4.375s-0.833-2.833-3.125-2.833s-3.042-1.042-3.042-2.75s1.063-4.562-0.583-6.208s-3.667-3.166-3.667-4.125
	s1.417-1.417,1.417-3.292s-1.084-1.375-1.084-2.625s-1.208-1.126-1.208-2.084s2.167-1.235,2.167-2.784
	c0-1.549-1.167-0.84-1.167-2.59s-0.375-2.751-0.375-3.834s1.25-2,1.25-3.25s1-3.083,1-4.583s0.003-3.042,1.23-4.188
	s1.478-1.979,1.478-2.688s1-0.625,1-1.5s-1.083-2.5-1.083-3.75s-0.335-2.29,1.749-4.374s5.166-5.294,6-7.335
	s1.543-2.124,2.501-2.124s1.708-2.043,2.208-5.834s-0.083-6.666,0.5-7.583s1.583-1.625,1.583-2.75s-1.75-0.5-1.75-1.542
	s0.739-2.063,0.739-3.178c-0.283,0.284-9.994-4.202-18.742-8.295c-7.148-3.343-13.654-6.424-13.852-6.424
	c-0.438,0-2.063,2.688-3.625,2.688s-3.438-0.563-5.188,1.188s-0.813,3.063-0.813,5.313c0,1.313-1.594,0.844-2.844,2.094
	s-1.469,6.531-3.781,6.531s-0.645-1.083-2.187-1.083s-1.209,2.292-1.917,3s-1.959,0.958-1.959,0.958
	c-2.063,1.125-1.938,2.125-2.875,3.063s0.563,0.75,0.563,1.875s-2.688,1.313-5.25,3.875s-1.5,6.313-1.5,9.75s0.75,4.625,0.75,7.5
	s-0.688,4.125-0.688,7.5s-3,2-3,4.125s2.375,1.188,2.375,2.688s-0.188,2.438,0.438,3.063s0.813,1.313,0.813,3.938
	c0,1.25,1.531,0.844,2.375,1.688c0.844,0.844-0.031,1.594,1.25,2.875c1.281,1.281,0,2.875-1.25,2.875s-3.313,0.625-3.313,2.625
	c0,1.563,1.25,1,1.25,2.188c0,2.75-1.813,0.5-3.938,2.625s-0.719,3.156-1.438,3.875c-0.719,0.719-2.479-0.499-2.479,0.959
	s-0.958,1.084-0.958,2.167s1,1.041,1,2.416s-2.624,0.583-3.666,1.625c-1.604,1.604,0.499,2.916,0.499,3.75s-1.333,0.376-1.333,1.959
	s7.75,7.834,7.75,8.417s-4.167,2.124-4.167,4.749c0,1.292-2,1.084-2,3.042s-0.584,1.75-1,2.75s-0.916,0.792-0.916,2.75
	s0.5,1.333,1.083,2.875s4.791,15.875,7.958,15.875s1.916-0.793,4.333-0.793c1.417,0,5.334,3.25,5.334,3.875
	c0,1.375-7.375,1.875-7.375,6.043c0,2.957,2.042,1.75,2.042,3.916s-2.583,2.625-3.625,2.625s-2.209,1.25-2.959,3.5
	s-1.416,1.584-2.708,2.875c-1.292,1.293,0.083,1.418-0.875,2.375c-0.958,0.959-1.959,0.668-1.959,2.375
	c0,1.709-0.457,1.543-2.124,1.543c-0.542,0-4.292,2.666-4.292,4.875c0,2.791,2.36,2.578,3.168,3.416
	c1.264,1.313,0.749,4.707,0.749,7.25c0,1.666,3.061,2.521,4.978,4.896s0.168,4.834,1.313,5.979c1.145,1.145,0.833,1.917,2.333,1.917
	s0.835,0.583,2.251,0.583c3.291,0,1.832,0.708,2.916,0.708c2.209,0,2.125-1.583,4.042-1.583s4.229-1.313,5.625-2.708
	c1.396-1.396,7.083-8.958,8.708-8.958s5.416-0.793,9.875,0.416s9.167,6.416,11.042,6.416s2.167-1.209,2.167-2.209
	s-1.125-0.957-1.125-1.832s1.249-0.791,6.916-4.541s8.54-6.668,9.499-6.668s1.709-0.375,2.876-0.375s3,5,4.5,5
	s1.875-1.957,3.375-1.957s1.334-1.75,0.417-1.75s-1.125-1.209-0.167-1.209s1.021-0.938-0.042-2
	c-1.063-1.062-1.166-1.377-1.166-2.668c0-0.178-0.021-0.396-0.056-0.633c-0.214-1.49-1.078-3.998-2.425-5.597
	c-1.145-1.312-1.77-1.228-1.77-2.187s1.791-1.75,1.791-3.125s1.5-2.125,2.875-2.125c2.459,0,2.458-0.959,3.167-0.959
	c1,0,0.001-4.043,0.709-4.75C164.954,265.605,165.958,264.854,164.458,263.146z"/>
<path fill="#999999" stroke="#FFFFFF" stroke-miterlimit="10" d="M444.957,318.707c-0.438-1.25-5.063-9.813-5.063-10.313
	s1.375-2,0-2s0-1.124,0-2.313s-0.384-0.804-1.268-1.688c-0.884-0.884-1.045-1.875-0.42-2.5s0.688-2.188-0.75-2.188
	c-1.438,0-2.313-1.875-3.75-1.875c-1.438,0-1.75,0.5-2.75,0.5s-1.313-1.5-2.188-1.5s-0.625-1.125-1.25-1.75
	s-0.938-0.125-1.813-0.438c-0.875-0.313-1.563-2.563-2.979-3.16c-1.414-0.596-1.365,0.565-2.085-0.152
	c-0.719-0.719-1.75-0.5-1.75-2.375s0-4.375,0-6.125s-1.188-2.188-1.188-3.188s0-9.875,0-9.875s1.781-1.531,3.625-3.375
	c1.844-1.845,0.125-1.5,0.125-2.25s2.219-1.97,1.25-2.938c-0.969-0.97-0.125-2.125-1.375-2.125s-2.188,1.063-3.188,1.063
	s-52.188-3.188-52.188-3.188l-1.416-24.854l-10.375-12.542l9.375-0.208c0,0-0.5-13.583-0.5-14.916s-1.875-1.209-1.875-3.292
	s-0.916-2-0.916-3.5s-0.729-1.729-1.792-2.792s-0.042-1.375-0.042-2.826c0-1.451-0.958-0.924-0.958-2.257
	c0-2.083,3.083-3.167,3.083-5.209s-1.208-1.208-1.583-2.875s-1.125-4.166-2.542-4.166s-1.292-0.875-2.417-1.625
	s-1.791,0.333-2.979-0.854c-1.188-1.187-1.916-0.542-3.271-1.896s-1.999-1.084-3.625-2.709s-1.813-0.479-2.833-1.5
	s-0.625-1.374-1.417-2.166s-0.666,0.708-2.041,0.708s-0.959,1.417-2.417,1.417s-2.917-1.917-3.833-1.917s-1.354,0.688-2,1.333
	s-3.167,1.709-4.584,0.667c-1.328-0.977-1.644-1.032-2.946-0.659c-0.087,0.025-0.164,0.047-0.262,0.075
	c0,0-61.166,35.25-64.25,36.25s-6.708,0.791-7.917,2s1.667,1.666,1.667,3.583s-1.25,0.583-1.25,2.75s-1.25,3.833-0.666,5.167
	s2.666,2.833,2.666,4.666s1.583,3.084,2.75,4.251s-0.25,1.75,0.5,2.5s2-0.25,3.083,1.666s-0.083,3.084,1.333,3.75
	s5.834,3.167,5.834,5.084s0.229,1.521,3.041,4.333c-2.75,0-41.25-2.063-41.25-2.063c0,0.228-0.029,0.431-0.074,0.619
	c-0.291,1.207-1.363,1.687-1.363,2.443c0,0.875,1.438,1.125,1.438,2.813s-0.625,2.563,0,3.188s1.5,0.688,1.5,1.938s-1,0.375-1,1.75
	s1,0.938,1,2.813s-0.875,0.25-0.875,3.188s-2.875,3.188-2.875,4.563s0.563,3-0.281,3.906c-0.188,0.202-0.322,0.457-0.424,0.73
	c-0.354,0.957-0.222,2.187,0.143,2.551c0.469,0.469-0.406,2.281,0,2.688c0.406,0.407,1.938-0.5,1.938,1.125s1.813,1.813,3.125,3.125
	c1.312,1.313,1.938,2.125,4.063,3s4.938,2.25,4.938,3.875s3.625,1.813,3.625,4.625c0,1.375-1.063,1.313-2.188,1.313
	s-0.125,0.375-1.938,0.375s-0.781,1.905-1.813,2.938c-1.032,1.031-1.938,2.125-2.625,3.813s-1.563,1.125-1.563,2.563
	c0,1.438-4.625,3.938-4.625,5.313s1.938,4.625,2.625,7s2.438,3.063,4.063,5.813s-0.063,2.813,1.375,3.625
	c1.438,0.813,4.063,2.5,4.063,4.063c0,1.563-0.375,3.375-0.75,4.875c0,0,0.25,0.875,0.25,2.5s1.438,2.125,3.313,5.188
	c1.875,3.063,1.594,1.22,3.875,3.5c2.281,2.281,0.688,4.313,2.938,4.313s0.969-2.031,2.375-3.438
	c1.406-1.406,4.281-0.844,4.813-0.313c0.531,0.531,0.5,2.5-0.375,2.5s-0.688,2.563-0.688,5c0,2.437,1.125,4.313,1.125,7.125
	c0,2.812-0.125,12.375-0.125,13.938c0,1.563,1.25,1.375,1.25,3.563c0,9.125-0.405,11.344,1.125,12.875
	c1.531,1.531,2.438,0.313,3.5,0.313c2.875,0,0.438-1.625,2.563-1.625s1.656-2.469,2.75-1.375c1.094,1.095,0.604,3.876,2.438,3.876
	h31.416c0,0,8.521-10.251,9.708-13.126s2.813-7.5,4.75-13.063c2.688-1.188,25.625-4,31.5-5.063
	c5.875-1.063,19.125-4.75,20.438-5.375c1.313-0.625,29.5,0.438,29.5,0.438s26.875,17,26.875,18.25s-0.688,0.688-0.688,1.625
	c0,0.937,1.125,1.813,1.125,2.875c0,1.062-0.5,6.125-0.5,6.125s1.781,0.219,3-1s1.781-2.156,2.438-2.813
	c0.656-0.656,2.75-0.063,3.063-0.938c0.313-0.875,1.938,0,0.5-1.438c-1.438-1.438-7.75-7.5-7.75-7.875s9.125-16.688,10.313-19.5
	c1.188-2.812,3.063-1,3.063-3.063c0-3-1.938-2.938-1.563-3.875c0.375-0.938,6.25-18,6.938-19.563c0.688-1.563,2.563,0.063,2.563-1
	C446.646,319.457,446.832,318.707,444.957,318.707z"/>
<path fill="#999999" stroke="#FFFFFF" stroke-miterlimit="10" d="M238.582,284.645c0-1.625-2.813-3-4.938-3.875s-2.75-1.688-4.063-3
	c-1.313-1.312-3.125-1.5-3.125-3.125s-1.531-0.719-1.938-1.125c-0.407-0.406,0.469-2.219,0-2.688
	c-0.364-0.364-0.496-1.593-0.143-2.55c0.102-0.274,0.236-0.529,0.424-0.731c0.844-0.906,0.281-2.531,0.281-3.906
	s2.875-1.625,2.875-4.563s0.875-1.313,0.875-3.188s-1-1.438-1-2.813s1-0.5,1-1.75s-0.875-1.313-1.5-1.938s0-1.5,0-3.188
	s-1.438-1.938-1.438-2.813c0-0.757,1.072-1.236,1.363-2.443c0.045-0.188,0.074-0.392,0.074-0.619
	c-3.563,0-12.042,1.146-15.125,1.146c-4.083,4.083-1.834,6.583-4,11.5c-2.166,4.916-7.084,4.5-10.5,6.166
	c-3.416,1.668-5.5,1.416-7.417,1.416s-10.667-4.25-13.333-7.832c-2.666-3.583-3.417-1.834-4.584-5
	c-1.167-3.167-1.291-4.625-4.041-6.375s-4.041-3.792-5.874-5.624c-0.875,0.875-4.042,3.5-4.042,4.75s2.084,1.667,2.084,3.042
	s-0.959,0.833-0.959,1.874s-0.833,1.209-0.833,2.251s1.125,0.375,1.125,1.667c0,1.292,1.75,1.333,1.75,2.291
	c0,0.959-0.917,1.043-0.917,1.875c0,0.176,0.105,0.369,0.251,0.582c0.546,0.797,1.833,1.93,1.833,4.002
	c0,3.416,0.208,3.375,1.708,5.084s0.5,2.457-0.208,3.166c-0.708,0.707,0.291,4.75-0.709,4.75c-0.709,0-0.708,0.959-3.167,0.959
	c-1.375,0-2.875,0.75-2.875,2.125s-1.791,2.166-1.791,3.125s0.625,0.875,1.77,2.187c1.347,1.599,2.211,4.104,2.425,5.597
	c0.034,0.237,0.056,0.455,0.056,0.633c0,1.291,0.104,1.605,1.166,2.668c1.062,1.063,1,2,0.042,2s-0.75,1.209,0.167,1.209
	s1.083,1.75-0.417,1.75s-1.875,1.957-3.375,1.957c0.229,1.5,1.385,0.405,3.916,2.938c1.553,1.555,3.576,4.682,5.124,7.229
	c0.115,0.189,0.226,0.373,0.335,0.555c0.014,0.021,0.027,0.045,0.041,0.066c0.102,0.172,0.201,0.339,0.299,0.5
	c0.024,0.041,0.047,0.08,0.071,0.12c0.463,0.778,0.853,1.447,1.13,1.919c0.018,0.03,0.037,0.063,0.053,0.092
	c0.074,0.127,0.142,0.238,0.197,0.332c1.688-0.688,2.781-0.72,3.406,0.155s1.719-0.469,2.594-0.469s0.813,0.5,2.125,0.5
	s0.938-0.563,2.344-1.344c1.406-0.781,2.469-2.595,3.719-2.595s2.375-0.813,3.25-0.813s2,2.75,3.25,4s2.188-0.5,3.25,0.563
	c1.062,1.063,5.125,4.125,6.313,5.313s5.986,6.916,9.18,9.271c0.001,0,0.002,0.002,0.002,0.002c0.047,0.022,0.082,0.049,0.119,0.072
	c0.024,0.015,0.051,0.027,0.07,0.042c0.029,0.022,0.05,0.046,0.074,0.069c0.015,0.015,0.033,0.03,0.048,0.046
	c0.057,0.065,0.091,0.135,0.112,0.205c0.001,0.006,0.004,0.012,0.005,0.018c0.001,0.004,0.003,0.009,0.004,0.014
	c0.012,0.05,0.019,0.1,0.019,0.149c0.001,0.008,0.002,0.017,0.002,0.023c-0.001,0.025-0.005,0.052-0.008,0.077
	c-0.001,0.008-0.002,0.016-0.002,0.022c-0.014,0.104-0.039,0.204-0.064,0.307c-0.003,0.015-0.006,0.029-0.01,0.046
	c-0.02,0.077-0.035,0.153-0.043,0.229c0,0.008-0.001,0.017-0.002,0.023c-0.003,0.055,0.002,0.106,0.012,0.158
	c0.002,0.014,0.006,0.025,0.01,0.04c0.016,0.055,0.039,0.106,0.08,0.156c0,0,0,0,0.001,0.001c0.04,0.048,0.099,0.093,0.169,0.135
	c0.018,0.01,0.035,0.021,0.055,0.029c0.08,0.041,0.172,0.08,0.293,0.114c1.563,0.438,1.313,1.813,1.75,3.188s2.563,0.375,3.438,1.25
	s2.813,2.188,2.313-0.063c-0.134-0.603-0.088-1.028,0.066-1.368c0.424-0.93,1.727-1.175,2.871-2.319
	c0.407-0.406,0.85-0.7,1.295-0.907c1.266-0.587,2.549-0.437,3.08,0.096c0.719,0.719,2.344-0.031,3.688,1.313
	c1.344,1.344,3,4.188,4.188,4.188s2.75-1.875,4.25-1.875s1.063,1.875,2.813,1.875c0.375-1.5,0.75-3.313,0.75-4.875
	c0-1.562-2.625-3.25-4.063-4.063c-1.438-0.813,0.25-0.875-1.375-3.625s-3.375-3.438-4.063-5.813s-2.625-5.625-2.625-7
	s4.625-3.875,4.625-5.313c0-1.438,0.875-0.875,1.563-2.563s1.594-2.781,2.625-3.813c1.031-1.032,0-2.938,1.813-2.938
	s0.813-0.375,1.938-0.375s2.188,0.063,2.188-1.313C242.207,286.457,238.582,286.27,238.582,284.645z"/>
</svg>
