<?xml version="1.0" encoding="utf-8"?>
<!-- Generator: Adobe Illustrator 16.0.0, SVG Export Plug-In . SVG Version: 6.00 Build 0)  -->
<!DOCTYPE svg PUBLIC "-//W3C//DTD SVG 1.1//EN" "http://www.w3.org/Graphics/SVG/1.1/DTD/svg11.dtd">
<svg version="1.1" id="Capa_1" xmlns="http://www.w3.org/2000/svg" xmlns:xlink="http://www.w3.org/1999/xlink" x="0px" y="0px"
	 width="120.903px" height="120.848px" viewBox="0 0 120.903 120.848" enable-background="new 0 0 120.903 120.848"
	 xml:space="preserve">
<path d="M45.625,87.473c2.449,1.455,10.497,6.235,13.492,8.015c0.659,0.392,1.383,0.51,2.295-0.036
	c3.01-1.799,11.168-6.669,13.469-8.043c0.389-0.232,0.611-0.578,0.611-1.193c0-2.961,0-10.042,0-13.391
	c0-0.8-0.531-1.307-1.166-0.928c-2.798,1.669-10.037,5.988-12.898,7.697c-0.742,0.443-1.687,0.415-2.5-0.069
	c-2.965-1.762-10.139-6.025-12.842-7.632c-0.876-0.521-1.178-0.095-1.178,0.512c0,3.493,0,10.904,0,13.787
	C44.908,86.734,45.17,87.202,45.625,87.473z"/>
<polygon points="54.219,67.812 56.202,68.992 56.202,66.586 "/>
<path d="M64.205,65.787l-0.183-0.108c0.017,0.436,0.061,0.879,0.174,1.266L64.205,65.787z"/>
<polygon points="56.202,68.992 64.144,73.714 56.202,68.992 "/>
<path d="M57.587,64.318c0,1.117,0,3.714,0,4.832c0,0.294,0.128,0.36,0.249,0.431c0.99,0.578,3.383,1.973,4.373,2.55
	c0.139,0.08,0.374,0.026,0.374-0.262c0-1.114,0-3.558,0-4.672c0-0.484-0.377-0.715-0.503-0.787c-1.021-0.587-3.063-1.763-4.084-2.35
	C57.894,64,57.587,64.023,57.587,64.318z M61.737,70.98l-3.315-1.962V65.28l3.315,1.981V70.98z"/>
<path d="M58.768,67.857c0.146,0.422,0.383,0.993,0.551,1.314c0.066,0.128,0.192,0.194,0.324,0.076
	c0.397-0.358,1.342-1.179,1.719-1.535c0.132-0.125,0.018-0.29-0.148-0.176c-0.4,0.275-1.627,1.019-1.627,1.019
	s-0.402-0.502-0.57-0.793C58.889,67.543,58.694,67.649,58.768,67.857z"/>
<path d="M69.904,63.313c-1.1-0.684-1.59-0.759-1.59-1.764c0-1.004,0.914-3.281,2.842-4.421s3.588,0.244,3.588,0.244
	c-1.318,0-2.41,0.809-3.424,1.979C70.357,60.463,69.654,62.013,69.904,63.313z"/>
<path d="M70.844,63.828c0.894,0.894,3.439-0.041,4.754-2.818c0.548-1.156,0.735-3.061-0.826-3.061
	C72.197,57.949,69.449,62.433,70.844,63.828z"/>
<path d="M66.893,64.239c-0.021,0.203-0.027,0.357-0.027,0.549c0,2.531-0.094,3.792-1.324,3.792c-0.811,0-1.146-0.341-1.345-0.775
	l-0.009,5.168l0.937-0.571l-0.371-0.235l0.001-2.9l3.445,2.048l-4.056,2.399l-7.941-4.723l0,0l-1.983-1.18l1.983-1.226v-3.904
	c0,0-8.167,4.85-10.97,6.513c-0.411,0.244-0.426,0.819-0.074,1.027c3.033,1.803,10.808,6.427,13.842,8.231
	c0.988,0.588,1.43,0.622,2.43,0.028c2.969-1.767,10.67-6.349,13.634-8.113c0.598-0.355,0.575-0.934-0.098-1.333
	C72.948,67.835,66.893,64.239,66.893,64.239z"/>
<path d="M65.541,55.328c-1.133,0-0.729,0.301-2.651,0.301c-2.485,0-1.63,0.777-4.569,0.777c-0.416,0-1.078-0.098-1.543,0.699
	c-0.466,0.796-1.203,1.749-1.842,2.388c-0.639,0.639-0.289,0.98-0.289,1.666c0,0.686-0.564,1.396,0.289,1.396
	c0.689,0,1.18-0.706,1.342-1.481l7.301,4.332c-0.018-0.487,0-0.469,0-0.842c-0.526-0.527-0.748-1.774-0.748-2.737
	c0,0-1.338-0.794-1.784-1.06c-0.619-0.368-1.009-0.361-1.466-0.089c-0.408,0.242-1.632,0.969-1.632,0.969l-1.618-0.951
	c0.004-0.058,0.006-0.117,0.006-0.175c0.123,0,1.846-0.759,1.846-1.468c0.595,0.354,2.588,0.496,3.298,0.496
	c0,0.522,1.323,2.055,1.846,2.055c0,0.155,0.007,0.338,0.02,0.528c0.05,0.776,0.218,1.75,0.678,2.209
	c0,1.273-0.216,3.745,1.519,3.745c0.785,0,0.83-1.008,0.83-3.539c0-0.192,0.013-0.393,0.035-0.596
	c0.125-1.146,0.596-2.359,1.345-2.359c0-2.114,1.165-3.635,2.815-4.617C68.831,55.949,66.674,55.328,65.541,55.328z"/>
<circle cx="40.263" cy="27.795" r="6.011"/>
<circle cx="25.771" cy="36.393" r="7.355"/>
<circle cx="9.145" cy="44.406" r="8.748"/>
<g>
	<path d="M60.403,26.525c0,0.001,0,0.003,0,0.004c0.027,0,0.056-0.002,0.083-0.002c0.027,0,0.055,0.002,0.082,0.002
		c0-0.001,0-0.003,0-0.004c3.286-0.088,5.924-2.781,5.924-6.092c0-3.312-2.638-6.004-5.924-6.092c0-0.001,0-0.003,0-0.004
		c-0.027,0-0.055,0.002-0.082,0.002s-0.056-0.002-0.083-0.002c0,0.001,0,0.003,0,0.004c-3.29,0.088-5.931,2.78-5.931,6.092
		S57.113,26.437,60.403,26.525z"/>
	<path d="M108.967,56.293c-4.002,0-7.203,1.302-7.203,1.302c0-6.711-2.102-11.72-6.804-11.72c-2.901,0-7.104,2.404-7.104,2.404
		c0-5.81,1.4-12.521-6.103-12.521c-5.904,0-8.705,4.407-8.705,8.714c-1.125-1.127-2.102-0.801-2.102-0.801s-0.9-10.017-5.053-14.174
		c-1.359-1.361-3.498-1.683-5.326-1.701c0,0,0-0.001,0-0.001c-0.027,0-0.055,0.001-0.082,0.001s-0.057-0.001-0.083-0.001
		c0,0,0,0.001,0,0.001c-1.829,0.018-3.972,0.34-5.333,1.701c-4.156,4.157-5.059,14.174-5.059,14.174s-0.977-0.326-2.104,0.801
		c0-4.307-2.805-8.714-8.715-8.714c-7.512,0-6.109,6.711-6.109,12.521c0,0-4.207-2.404-7.111-2.404
		c-4.709,0-6.813,5.008-6.813,11.72c0,0-3.205-1.302-7.212-1.302c-6.61,0-10.017,4.908-10.017,10.317
		c0,14.725,1.402,21.035,4.308,23.939c7.249,7.249,23.813,15.928,54.164,15.959v0.002c0.027,0,0.056-0.002,0.083-0.002
		s0.055,0.002,0.082,0.002v-0.002c30.316-0.031,46.861-8.711,54.102-15.959c2.901-2.905,4.303-9.215,4.303-23.939
		C118.973,61.201,115.57,56.293,108.967,56.293z M59.205,30.575c0-0.725,0.566-1.316,1.281-1.359
		c0.713,0.043,1.279,0.634,1.279,1.359c0,0.486-0.312,1.06-0.856,1.283l1.634,9.185l-2.057,2.19l-2.061-2.19l1.637-9.185
		C59.518,31.635,59.205,31.061,59.205,30.575z M60.486,97.361c-29.334-0.017-44.563-9.036-42.094-12.186
		c8.615-10.988,25.731-34.813,26.979-36.061c1.787-1.786,3.235-2.087,3.765-2.087c0,0-1.026,2.354-1.026,4.157
		c0,0.063,0.004,0.124,0.01,0.183c0.188,1.615,2.892,1.524,4.172,0.243c0.902-0.902,1.077-2.329,1.778-5.685
		c0,0,2.779-0.444,6.417-0.451c3.633,0.007,6.409,0.451,6.409,0.451c0.7,3.355,0.876,4.783,1.776,5.685
		c1.279,1.281,3.979,1.372,4.166-0.243c0.008-0.059,0.012-0.12,0.012-0.183c0-1.803-1.026-4.157-1.026-4.157
		c0.528,0,1.976,0.301,3.761,2.087c1.245,1.247,18.342,25.073,26.946,36.061C104.998,88.325,89.785,97.344,60.486,97.361z"/>
	<ellipse cx="80.686" cy="27.795" rx="6.004" ry="6.01"/>
	<ellipse cx="95.16" cy="36.393" rx="7.347" ry="7.355"/>
	<ellipse cx="111.768" cy="44.406" rx="8.739" ry="8.748"/>
</g>
</svg>
