<?xml version="1.0" encoding="utf-8"?>
<!-- Generator: Adobe Illustrator 16.0.0, SVG Export Plug-In . SVG Version: 6.00 Build 0)  -->
<!DOCTYPE svg PUBLIC "-//W3C//DTD SVG 1.1//EN" "http://www.w3.org/Graphics/SVG/1.1/DTD/svg11.dtd">
<svg version="1.1" id="Capa_1" xmlns="http://www.w3.org/2000/svg" xmlns:xlink="http://www.w3.org/1999/xlink" x="0px" y="0px"
	 width="120.903px" height="120.849px" viewBox="0 0 120.903 120.849" enable-background="new 0 0 120.903 120.849"
	 xml:space="preserve">
<g>
	<g>
		<path d="M61.748,47.67c-1.361,0-2.684-0.613-3.576-1.567c-1.41-1.51-1.864-4,0.297-6.163c2.791-2.792,10.21-9.522,10.522-9.808
			c0.6-0.545,1.533-0.502,2.081,0.101c0.545,0.602,0.501,1.534-0.104,2.08c-0.076,0.07-7.677,6.968-10.418,9.709
			c-0.742,0.74-0.817,1.437-0.225,2.07c0.5,0.536,1.572,0.97,2.39,0.258c2.849-2.482,7.383-6.279,7.427-6.316
			c0.467-0.393,1.127-0.457,1.664-0.159c1.104,0.62,6.655,1.475,8.883-1.991c0.441-0.684,1.354-0.884,2.035-0.441
			c0.686,0.437,0.88,1.349,0.442,2.033c-2.8,4.356-8.821,4.371-11.818,3.388c-1.374,1.157-4.531,3.817-6.699,5.706
			C63.768,47.338,62.748,47.67,61.748,47.67z"/>
	</g>
</g>
<g>
	<g>
		<path d="M72.336,52.247c-0.749,0-1.51-0.038-2.29-0.116c-0.81-0.081-1.396-0.803-1.316-1.611c0.08-0.811,0.818-1.403,1.612-1.318
			c4.36,0.437,8.127-0.543,10.586-2.767c1.969-1.781,3.055-4.327,3.055-7.169c0-0.814,0.66-1.474,1.472-1.474
			c0.813,0,1.471,0.659,1.471,1.474c0,3.686-1.428,7.007-4.021,9.353C80.278,50.991,76.588,52.247,72.336,52.247z"/>
	</g>
</g>
<g>
	<g>
		<path d="M89.066,47.668h-5.912c-0.811,0-1.471-0.659-1.471-1.473c0-0.814,0.66-1.473,1.471-1.473h5.912
			c0.818,0,1.476,0.659,1.476,1.473C90.542,47.009,89.885,47.668,89.066,47.668z"/>
	</g>
</g>
<g>
	<g>
		<path d="M99.707,51.628H90.29c-1.486,0-2.695-1.208-2.695-2.694V27.862c0-0.391,0.156-0.765,0.434-1.041
			c0.274-0.276,0.649-0.432,1.038-0.432l0,0l10.641,0.001c1.481,0,2.692,1.209,2.692,2.695v19.848
			C102.399,50.42,101.188,51.628,99.707,51.628z M90.542,48.683h8.911V29.336l-8.911-0.001V48.683z"/>
	</g>
</g>
<g>
	<g>
		<path d="M94.995,46.935c-0.813,0-1.471-0.66-1.471-1.474v-3.755c0-0.813,0.657-1.473,1.471-1.473c0.815,0,1.477,0.659,1.477,1.473
			v3.755C96.472,46.275,95.811,46.935,94.995,46.935z"/>
	</g>
</g>
<g>
	<g>
		<path d="M50.996,40.48c-0.37,0-0.739-0.137-1.023-0.415c-0.587-0.565-0.602-1.498-0.033-2.081
			c0.065-0.067,6.499-6.703,8.771-8.974c2.629-2.627,4.91-2.632,8.349-2.623l22.007,0.001c0.818,0,1.476,0.659,1.476,1.472
			s-0.657,1.473-1.476,1.473l-22.01,0c-3.144,0.002-4.501-0.005-6.265,1.759c-2.254,2.256-8.675,8.874-8.737,8.94
			C51.764,40.332,51.382,40.48,50.996,40.48z"/>
	</g>
</g>
<g>
	<g>
		<path d="M39.137,80.224c-0.813,0-1.474-0.658-1.474-1.473V40.485c0-1.485,1.209-2.693,2.697-2.693h20.765
			c0.814,0,1.475,0.659,1.475,1.474c0,0.812-0.66,1.471-1.475,1.471H40.611v38.015C40.611,79.565,39.951,80.224,39.137,80.224z"/>
	</g>
</g>
<g>
	<g>
		<path d="M70.033,80.224c-0.814,0-1.473-0.658-1.473-1.473V40.485c0-0.812,0.658-1.473,1.473-1.473
			c0.813,0,1.471,0.661,1.471,1.473v38.266C71.504,79.565,70.847,80.224,70.033,80.224z"/>
	</g>
</g>
<g>
	<g>
		<path d="M88.111,87.68H21.059c-0.516,0-0.99-0.266-1.258-0.705c-0.266-0.437-0.287-0.984-0.052-1.441
			c0.249-0.483,6.119-11.912,7.456-14.319c0.504-0.911,1.584-1.979,2.967-1.979h8.955c0.817,0,1.475,0.66,1.475,1.473
			c0,0.813-0.657,1.473-1.475,1.473h-8.955c-0.028,0.025-0.266,0.229-0.393,0.464c-0.965,1.738-4.488,8.557-6.307,12.088h62.211
			c-1.682-3.239-4.822-9.286-6.266-12.139c-0.094-0.184-0.356-0.392-0.47-0.418l-8.751,0.004c-0.814,0-1.471-0.66-1.471-1.473
			c0-0.813,0.656-1.473,1.471-1.473h8.805c1.322,0,2.532,1.021,3.041,2.029c2.009,3.969,7.32,14.16,7.373,14.262
			c0.241,0.458,0.221,1.004-0.045,1.443C89.102,87.413,88.625,87.68,88.111,87.68z"/>
	</g>
</g>
<g>
	<g>
		<path d="M73.645,80.224H35.523c-0.813,0-1.471-0.658-1.471-1.473c0-0.813,0.658-1.472,1.471-1.472h38.121
			c0.814,0,1.473,0.659,1.473,1.472C75.117,79.565,74.459,80.224,73.645,80.224z"/>
	</g>
</g>
<g>
	<g>
		<path d="M52.016,70.868c-0.557,0-1.076-0.215-1.471-0.607l-8.257-8.474c-0.382-0.379-0.598-0.903-0.598-1.46
			s0.216-1.081,0.612-1.473l3.802-3.803c0.788-0.787,2.158-0.787,2.946,0l3.001,3.163l7.827-8.018
			c0.816-0.812,2.175-0.799,2.959-0.011l3.803,3.802c0.813,0.812,0.813,2.133,0.002,2.945L53.494,70.25
			C53.092,70.651,52.57,70.868,52.016,70.868z M44.764,60.339l7.2,7.388l12.212-12.374l-2.642-2.641l-8.478,8.68
			c-0.281,0.29-0.668,0.454-1.076,0.454h-0.01c-0.409-0.004-0.805-0.174-1.085-0.47l-3.487-3.674L44.764,60.339z"/>
	</g>
</g>
<g>
	<path d="M60.475,120.067c-0.137,0-0.273-0.016-0.407-0.048C7.617,107.473,3.229,68.229,3.229,29.108
		c0-0.688,0.403-1.313,1.031-1.596l55.496-24.99c0.45-0.204,0.963-0.206,1.416-0.009l54.891,23.84
		c0.639,0.277,1.053,0.908,1.053,1.605c0,36.86-6.394,80.635-56.25,92.064C60.737,120.053,60.605,120.067,60.475,120.067z
		 M6.729,30.239c0.087,37.244,4.658,74.341,53.753,86.28c46.336-10.836,53-50.09,53.131-87.414L60.487,6.032L6.729,30.239z"/>
</g>
</svg>
