<?xml version="1.0" encoding="utf-8"?>
<!-- Generator: Adobe Illustrator 16.0.0, SVG Export Plug-In . SVG Version: 6.00 Build 0)  -->
<!DOCTYPE svg PUBLIC "-//W3C//DTD SVG 1.1//EN" "http://www.w3.org/Graphics/SVG/1.1/DTD/svg11.dtd">
<svg version="1.1" id="Capa_1" xmlns="http://www.w3.org/2000/svg" xmlns:xlink="http://www.w3.org/1999/xlink" x="0px" y="0px"
	 width="120.903px" height="120.848px" viewBox="0 0 120.903 120.848" enable-background="new 0 0 120.903 120.848"
	 xml:space="preserve">
<g>
	<path d="M86.021,99.198H37.039c-0.805,0-1.455-0.648-1.455-1.453c0-0.803,0.65-1.455,1.455-1.455h48.982
		c0.804,0,1.457,0.652,1.457,1.455C87.479,98.549,86.825,99.198,86.021,99.198z"/>
</g>
<g>
	<path d="M59.347,95.077H44.191c-0.804,0-1.454-0.65-1.454-1.455s0.65-1.455,1.454-1.455h13.702v-39.05
		c0-0.803,0.651-1.454,1.453-1.454c0.805,0,1.456,0.651,1.456,1.454v40.505C60.803,94.426,60.151,95.077,59.347,95.077z"/>
</g>
<g>
	<path d="M79.354,95.077H64.199c-0.806,0-1.456-0.65-1.456-1.455V53.116c0-0.803,0.65-1.454,1.456-1.454
		c0.803,0,1.452,0.651,1.452,1.454v39.05h13.703c0.804,0,1.455,0.65,1.455,1.455S80.158,95.077,79.354,95.077z"/>
</g>
<g>
	<path d="M66.38,53.7h-9.699c-1.604,0-2.91-1.306-2.91-2.91v-9.698c0-1.604,1.306-2.911,2.91-2.911h9.699
		c1.604,0,2.909,1.307,2.909,2.911v9.698C69.289,52.395,67.984,53.7,66.38,53.7z M56.681,41.092v9.698h9.701l-0.002-9.698H56.681z"
		/>
</g>
<g>
	<path d="M52.374,66.674h-24.25c-0.525,0-1.008-0.281-1.266-0.738c-0.259-0.454-0.253-1.014,0.016-1.462l12.234-20.469
		c0.117-0.206,0.286-0.383,0.5-0.516c0.018-0.011,0.035-0.021,0.053-0.032c0,0,0.002,0,0.002-0.001l0,0
		c0.232-0.128,0.484-0.18,0.731-0.183h14.83c0.806,0,1.456,0.651,1.456,1.456c0,0.804-0.65,1.453-1.456,1.453H42.909L53.63,64.483
		c0.263,0.45,0.266,1.006,0.007,1.459S52.896,66.674,52.374,66.674z M30.689,63.764h19.146l-9.477-16.177L30.689,63.764z"/>
</g>
<g>
	<path d="M40.25,77.069c-9.442,0-13.003-7.619-13.567-11.647c-0.057-0.419,0.068-0.839,0.344-1.157
		c0.275-0.319,0.678-0.501,1.098-0.501h24.25c0.42,0,0.821,0.182,1.098,0.501c0.276,0.316,0.4,0.738,0.343,1.157
		C53.251,69.45,49.691,77.069,40.25,77.069z M29.981,66.674c0.869,2.642,3.4,7.486,10.269,7.486s9.397-4.843,10.268-7.486H29.981z"
		/>
</g>
<g>
	<path d="M95.81,66.674H71.558c-0.521,0-1.003-0.278-1.261-0.731c-0.261-0.453-0.257-1.009,0.006-1.459l10.72-18.301H67.833
		c-0.804,0-1.454-0.649-1.454-1.453c0-0.805,0.65-1.456,1.454-1.456h15.705c0.252,0.003,0.499,0.054,0.73,0.183
		c0.019,0.011,0.038,0.022,0.056,0.033c0.215,0.133,0.384,0.31,0.501,0.516l12.232,20.469c0.269,0.448,0.274,1.008,0.017,1.462
		C96.816,66.393,96.333,66.674,95.81,66.674z M74.097,63.764h19.147l-9.669-16.177L74.097,63.764z"/>
</g>
<g>
	<path d="M83.682,77.069c-9.441,0-13.001-7.619-13.563-11.647c-0.06-0.419,0.065-0.841,0.341-1.157
		c0.276-0.319,0.678-0.501,1.098-0.501H95.81c0.419,0,0.82,0.182,1.096,0.501c0.277,0.318,0.402,0.738,0.345,1.157
		C96.685,69.45,93.126,77.069,83.682,77.069z M73.416,66.674c0.867,2.641,3.398,7.486,10.266,7.486
		c6.868,0,9.397-4.843,10.271-7.486H73.416z"/>
</g>
<g>
	<path d="M105.944,113.431h-79.09c-6.051,0-12.156-4.041-12.156-13.07V19.14c0-1.021,0.828-1.85,1.85-1.85s1.85,0.829,1.85,1.85
		c0,3.57,3.241,5.788,8.457,5.788h79.09c1.021,0,1.85,0.828,1.85,1.85v84.804C107.794,112.603,106.966,113.431,105.944,113.431z
		 M18.397,26.276v74.085c0,6.909,4.369,9.371,8.457,9.371h77.24V28.627h-77.24C23.165,28.627,20.371,27.708,18.397,26.276z"/>
</g>
<g>
	<path d="M16.583,20.984c-0.961,0-1.771-0.737-1.842-1.709c-0.014-0.184-0.296-4.526,2.611-7.655
		c1.87-2.012,4.546-3.032,7.954-3.032h80.638c1.021,0,1.85,0.829,1.85,1.85s-0.828,1.85-1.85,1.85H25.307
		c-2.326,0-4.084,0.616-5.225,1.83c-1.813,1.929-1.652,4.866-1.65,4.896c0.063,1.016-0.705,1.897-1.721,1.966
		C16.668,20.983,16.625,20.984,16.583,20.984z"/>
</g>
<g>
	<path d="M104.964,20.137H25.688c-1.021,0-1.85-0.828-1.85-1.85s0.828-1.85,1.85-1.85h79.276c1.021,0,1.85,0.828,1.85,1.85
		S105.985,20.137,104.964,20.137z"/>
</g>
<g>
	<rect x="-0.001" fill="none" width="120.904" height="121"/>
</g>
</svg>
