<?xml version="1.0" encoding="utf-8"?>
<!-- Generator: Adobe Illustrator 16.0.0, SVG Export Plug-In . SVG Version: 6.00 Build 0)  -->
<!DOCTYPE svg PUBLIC "-//W3C//DTD SVG 1.1//EN" "http://www.w3.org/Graphics/SVG/1.1/DTD/svg11.dtd">
<svg version="1.1" id="Capa_1" xmlns="http://www.w3.org/2000/svg" xmlns:xlink="http://www.w3.org/1999/xlink" x="0px" y="0px"
	 width="122.926px" height="121px" viewBox="0 0 122.926 121" enable-background="new 0 0 122.926 121" xml:space="preserve">
<g>
	<g>
		<g>
			<path d="M61.91,32.015c-1.431,0-2.822-0.646-3.759-1.649c-1.481-1.587-1.96-4.206,0.313-6.479
				c2.934-2.936,10.731-10.011,11.062-10.312c0.632-0.573,1.611-0.527,2.186,0.106s0.527,1.613-0.105,2.188
				c-0.082,0.073-8.071,7.324-10.953,10.207c-0.779,0.779-0.86,1.511-0.236,2.175c0.523,0.563,1.65,1.021,2.511,0.271
				c2.995-2.609,7.761-6.601,7.81-6.64c0.489-0.413,1.184-0.479,1.748-0.166c1.16,0.651,6.996,1.549,9.34-2.094
				c0.461-0.718,1.421-0.928,2.137-0.464c0.723,0.46,0.927,1.419,0.465,2.136c-2.943,4.582-9.271,4.596-12.422,3.563
				c-1.446,1.216-4.766,4.014-7.045,5.999C64.033,31.665,62.96,32.015,61.91,32.015z"/>
		</g>
		<g>
			<path d="M73.041,36.825c-0.788,0-1.589-0.041-2.407-0.123c-0.851-0.084-1.468-0.844-1.384-1.695
				c0.084-0.852,0.861-1.475,1.694-1.385c4.585,0.459,8.545-0.571,11.13-2.909c2.069-1.873,3.21-4.55,3.21-7.537
				c0-0.855,0.693-1.548,1.548-1.548s1.545,0.693,1.545,1.548c0,3.875-1.5,7.366-4.228,9.833
				C81.391,35.504,77.51,36.825,73.041,36.825z"/>
		</g>
		<g>
			<path d="M90.628,32.01h-6.214c-0.853,0-1.546-0.692-1.546-1.548c0-0.854,0.693-1.547,1.546-1.547h6.214
				c0.86,0,1.552,0.693,1.552,1.547C92.18,31.317,91.488,32.01,90.628,32.01z"/>
		</g>
		<g>
			<path d="M101.815,36.174h-9.899c-1.563,0-2.835-1.271-2.835-2.832V11.189c0-0.411,0.166-0.804,0.457-1.095
				c0.287-0.291,0.683-0.454,1.09-0.454l0,0l11.188,0.002c1.559,0,2.829,1.271,2.829,2.833v20.866
				C104.645,34.903,103.374,36.174,101.815,36.174z M92.18,33.077h9.367V12.738l-9.367-0.002V33.077z"/>
		</g>
		<g>
			<path d="M96.86,31.24c-0.854,0-1.546-0.693-1.546-1.549v-3.949c0-0.854,0.692-1.546,1.546-1.546c0.859,0,1.554,0.692,1.554,1.546
				v3.949C98.414,30.547,97.72,31.24,96.86,31.24z"/>
		</g>
		<g>
			<path d="M50.608,24.455c-0.391,0-0.778-0.144-1.078-0.436c-0.614-0.594-0.632-1.575-0.036-2.188
				c0.07-0.07,6.834-7.045,9.223-9.433c2.764-2.762,5.162-2.767,8.777-2.756h23.134c0.86,0,1.552,0.693,1.552,1.548
				c0,0.855-0.691,1.547-1.552,1.547l-23.137,0c-3.306,0.002-4.731-0.005-6.588,1.849c-2.367,2.372-9.119,9.33-9.183,9.401
				C51.416,24.299,51.012,24.455,50.608,24.455z"/>
		</g>
		<g>
			<path d="M38.141,66.236c-0.856,0-1.551-0.693-1.551-1.548V24.46c0-1.561,1.272-2.832,2.836-2.832h21.829
				c0.855,0,1.55,0.693,1.55,1.548c0,0.854-0.694,1.546-1.55,1.546H39.69v39.964C39.69,65.543,38.994,66.236,38.141,66.236z"/>
		</g>
		<g>
			<path d="M70.62,66.236c-0.857,0-1.548-0.693-1.548-1.548V24.46c0-0.854,0.69-1.548,1.548-1.548c0.856,0,1.547,0.693,1.547,1.548
				v40.228C72.167,65.543,71.477,66.236,70.62,66.236z"/>
		</g>
		<g>
			<path d="M89.625,74.073H19.134c-0.54,0-1.041-0.278-1.322-0.741c-0.278-0.459-0.302-1.033-0.056-1.514
				c0.262-0.508,6.434-12.524,7.84-15.054c0.528-0.957,1.665-2.081,3.119-2.081h9.416c0.858,0,1.548,0.693,1.548,1.55
				c0,0.854-0.689,1.548-1.548,1.548h-9.416c-0.028,0.026-0.279,0.24-0.414,0.488c-1.014,1.827-4.718,8.995-6.629,12.708h65.4
				c-1.768-3.405-5.066-9.763-6.586-12.761c-0.1-0.194-0.375-0.412-0.494-0.441l-9.198,0.005c-0.856,0-1.549-0.694-1.549-1.548
				c0-0.856,0.692-1.55,1.549-1.55h9.254c1.391,0,2.663,1.075,3.197,2.134c2.111,4.172,7.697,14.885,7.751,14.993
				c0.254,0.48,0.23,1.055-0.046,1.518C90.666,73.792,90.165,74.073,89.625,74.073z"/>
		</g>
		<g>
			<path d="M88.342,111.477H20.417c-1.558,0-2.831-1.272-2.831-2.834V72.526c0-0.855,0.695-1.548,1.548-1.548h70.491
				c0.855,0,1.547,0.693,1.547,1.548v36.117C91.172,110.204,89.902,111.477,88.342,111.477z M20.682,108.38h67.393V74.073H20.682
				V108.38z"/>
		</g>
		<g>
			<path d="M74.417,66.236H34.342c-0.854,0-1.548-0.693-1.548-1.548s0.693-1.547,1.548-1.547h40.075
				c0.855,0,1.548,0.691,1.548,1.547S75.272,66.236,74.417,66.236z"/>
		</g>
		<g>
			<path d="M51.679,56.4c-0.586,0-1.133-0.227-1.546-0.637l-8.68-8.908c-0.401-0.398-0.631-0.949-0.631-1.536
				s0.229-1.135,0.646-1.549l3.995-3.997c0.829-0.827,2.27-0.827,3.1,0l3.154,3.325l8.23-8.429c0.855-0.854,2.283-0.84,3.109-0.012
				l3.999,3.998c0.852,0.854,0.852,2.241,0.001,3.095L53.232,55.751C52.809,56.172,52.262,56.4,51.679,56.4z M44.054,45.332
				l7.57,7.765l12.84-13.006l-2.779-2.777l-8.909,9.126c-0.298,0.304-0.705,0.476-1.134,0.476h-0.011
				c-0.43-0.004-0.845-0.183-1.141-0.495l-3.666-3.862L44.054,45.332z"/>
		</g>
	</g>
</g>
<rect x="-0.002" y="0" fill="none" width="122.928" height="121"/>
</svg>
