<?xml version="1.0" encoding="utf-8"?>
<!-- Generator: Adobe Illustrator 16.0.0, SVG Export Plug-In . SVG Version: 6.00 Build 0)  -->
<!DOCTYPE svg PUBLIC "-//W3C//DTD SVG 1.1//EN" "http://www.w3.org/Graphics/SVG/1.1/DTD/svg11.dtd">
<svg version="1.1" id="Capa_1" xmlns="http://www.w3.org/2000/svg" xmlns:xlink="http://www.w3.org/1999/xlink" x="0px" y="0px"
	 width="120.902px" height="120.85px" viewBox="0 0 120.902 120.85" enable-background="new 0 0 120.902 120.85"
	 xml:space="preserve">
<rect x="0" y="-0.075" fill="none" width="120.902" height="121"/>
<path fill="none" stroke="#000000" stroke-width="3.7" stroke-linecap="round" stroke-linejoin="round" stroke-miterlimit="10" d="
	M48.55,49.709c1.534,0,2.958,0.468,4.142,1.268l17.221-25.499c-6.094-4.125-13.448-6.533-21.362-6.533
	c-15.673,0-29.131,9.452-35.005,22.962l28.222,12.255C42.906,51.542,45.514,49.709,48.55,49.709z"/>
<path fill="none" stroke="#000000" stroke-width="3.7" stroke-linecap="round" stroke-linejoin="round" stroke-miterlimit="10" d="
	M69.912,25.478L52.691,50.976c1.963,1.329,3.254,3.578,3.254,6.127c0,0.212-0.012,0.42-0.029,0.627l30.651,2.593
	c0.089-1.059,0.146-2.132,0.146-3.22C86.712,43.943,80.05,32.338,69.912,25.478z"/>
<path fill="none" stroke="#000000" stroke-width="3.7" stroke-linecap="round" stroke-linejoin="round" stroke-miterlimit="10" d="
	M41.155,57.103c0-1.044,0.22-2.041,0.612-2.942L13.545,41.906c-2.027,4.659-3.155,9.796-3.155,15.197c0,3.366,0.44,6.63,1.259,9.739
	l29.758-7.854C41.247,58.387,41.155,57.757,41.155,57.103z"/>
<path fill="none" stroke="#000000" stroke-width="3.7" stroke-linecap="round" stroke-linejoin="round" stroke-miterlimit="10" d="
	M41.406,58.988l-29.758,7.854c3.185,12.103,12.159,21.854,23.79,26.11l10.573-28.909C43.759,63.219,42.023,61.332,41.406,58.988z"/>
<path fill="none" stroke="#000000" stroke-width="3.7" stroke-linecap="round" stroke-linejoin="round" stroke-miterlimit="10" d="
	M53.585,72.611c-0.899,0-1.755-0.167-2.554-0.457l-10.643,28.854c4.114,1.493,8.559,2.309,13.197,2.309
	c20.122,0,36.615-15.344,38.264-34.875L60.997,65.85C60.679,69.635,57.485,72.611,53.585,72.611z"/>
<polyline fill="none" stroke="#000000" stroke-width="3.7" stroke-linecap="round" stroke-linejoin="round" stroke-miterlimit="10" points="
	92.901,62.301 95.876,39.209 110.689,39.209 "/>
<line fill="none" stroke="#000000" stroke-width="3.7" stroke-linecap="round" stroke-linejoin="round" stroke-miterlimit="10" x1="95.757" y1="29.435" x2="95.757" y2="33.891"/>
<line fill="none" stroke="#000000" stroke-width="3.7" stroke-linecap="round" stroke-linejoin="round" stroke-miterlimit="10" x1="100.735" y1="20.664" x2="100.735" y2="33.891"/>
<line fill="none" stroke="#000000" stroke-width="3.7" stroke-linecap="round" stroke-linejoin="round" stroke-miterlimit="10" x1="105.712" y1="27.959" x2="105.712" y2="33.891"/>
<line fill="none" stroke="#000000" stroke-width="3.7" stroke-linecap="round" stroke-linejoin="round" stroke-miterlimit="10" x1="110.689" y1="24.199" x2="110.689" y2="33.366"/>
<circle fill="none" stroke="#000000" stroke-width="3.7" stroke-linecap="round" stroke-linejoin="round" stroke-miterlimit="10" cx="48.58" cy="57.028" r="7.354"/>
</svg>
