<?xml version="1.0" encoding="utf-8"?>
<!-- Generator: Adobe Illustrator 16.0.0, SVG Export Plug-In . SVG Version: 6.00 Build 0)  -->
<!DOCTYPE svg PUBLIC "-//W3C//DTD SVG 1.1//EN" "http://www.w3.org/Graphics/SVG/1.1/DTD/svg11.dtd">
<svg version="1.1" id="Capa_1" xmlns="http://www.w3.org/2000/svg" xmlns:xlink="http://www.w3.org/1999/xlink" x="0px" y="0px"
	 width="120.902px" height="120.85px" viewBox="0 0 120.902 120.85" enable-background="new 0 0 120.902 120.85"
	 xml:space="preserve">
<rect x="-0.926" y="-0.075" fill="none" width="122.927" height="121"/>
<path fill="none" stroke="#000000" stroke-width="3.7" stroke-linecap="round" stroke-linejoin="round" stroke-miterlimit="10" d="
	M91.053,82.61V31.161c0-3.093-2.533-5.602-5.657-5.602h-47.67c-3.124,0-5.657,2.508-5.657,5.602v65.575
	c0,3.091,2.533,5.602,5.657,5.602h33.405l-0.021,0.021h14.298c3.129,0,5.669-2.517,5.669-5.614V82.587L91.053,82.61z"/>
<line fill="none" stroke="#000000" stroke-width="3.7" stroke-linecap="round" stroke-linejoin="round" stroke-miterlimit="10" x1="43.039" y1="40.434" x2="71.137" y2="40.434"/>
<line fill="none" stroke="#000000" stroke-width="3.7" stroke-linecap="round" stroke-linejoin="round" stroke-miterlimit="10" x1="43.039" y1="50.133" x2="80.232" y2="50.133"/>
<line fill="none" stroke="#000000" stroke-width="3.7" stroke-linecap="round" stroke-linejoin="round" stroke-miterlimit="10" x1="43.039" y1="59.833" x2="80.232" y2="59.833"/>
<rect x="45.461" y="70.433" fill="none" stroke="#000000" stroke-width="3.7" stroke-linecap="round" stroke-linejoin="round" stroke-miterlimit="10" width="6.186" height="20.692"/>
<rect x="58.468" y="79.207" fill="none" stroke="#000000" stroke-width="3.7" stroke-linecap="round" stroke-linejoin="round" stroke-miterlimit="10" width="6.187" height="11.919"/>
<rect x="71.474" y="74.362" fill="none" stroke="#000000" stroke-width="3.7" stroke-linecap="round" stroke-linejoin="round" stroke-miterlimit="10" width="6.186" height="16.764"/>
<path fill="none" stroke="#000000" stroke-width="3.7" stroke-linecap="round" stroke-linejoin="round" stroke-miterlimit="10" d="
	M99.16,101.399c0,4.857-3.938,8.796-8.796,8.796H32.757c-4.858,0-8.796-3.938-8.796-8.796V26.52c0-4.856,3.938-8.795,8.796-8.795
	h57.606c4.858,0,8.797,3.938,8.797,8.795V101.399z"/>
<rect x="48.555" y="12.005" fill="#FFFFFF" stroke="#000000" stroke-width="3.7" stroke-linecap="round" stroke-linejoin="round" stroke-miterlimit="10" width="26.012" height="13.297"/>
</svg>
