<?xml version="1.0" encoding="utf-8"?>
<!-- Generator: Adobe Illustrator 16.0.0, SVG Export Plug-In . SVG Version: 6.00 Build 0)  -->
<!DOCTYPE svg PUBLIC "-//W3C//DTD SVG 1.1//EN" "http://www.w3.org/Graphics/SVG/1.1/DTD/svg11.dtd">
<svg version="1.1" id="Capa_1" xmlns="http://www.w3.org/2000/svg" xmlns:xlink="http://www.w3.org/1999/xlink" x="0px" y="0px"
	 width="122.926px" height="121px" viewBox="0 0 122.926 121" enable-background="new 0 0 122.926 121" xml:space="preserve">
<rect fill="none" width="122.927" height="121"/>
<path fill="none" stroke="#000000" stroke-width="3.7" stroke-linecap="round" stroke-linejoin="round" stroke-miterlimit="10" d="
	M74.667,11.393H32.156c-3.975,0-7.198,3.224-7.198,7.198v84.265c0,3.975,3.224,7.198,7.198,7.198h60.662
	c3.975,0,7.198-3.224,7.198-7.198V36.742L74.667,11.393z"/>
<path fill="none" stroke="#000000" stroke-width="3.7" stroke-linecap="round" stroke-linejoin="round" stroke-miterlimit="10" d="
	M74.638,29.557c0,3.983,3.231,7.215,7.215,7.215h18.193L74.638,11.363V29.557z"/>
<circle fill="none" stroke="#000000" stroke-width="3.7" stroke-linecap="round" stroke-linejoin="round" stroke-miterlimit="10" cx="68.251" cy="77.023" r="15.25"/>
<path fill="none" stroke="#000000" stroke-width="3.7" stroke-linecap="round" stroke-linejoin="round" stroke-miterlimit="10" d="
	M69.168,69.845"/>
<path fill="none" stroke="#000000" stroke-width="3.7" stroke-linecap="round" stroke-linejoin="round" stroke-miterlimit="10" d="
	M69.168,69.845c4.47,0,8.094,3.624,8.094,8.095"/>
<g>
	<path d="M81.032,88.161L81.032,88.161 M81.032,88.161l8.467,8.468c0.722,0.722,0.722,1.894-0.001,2.616
		c-0.36,0.36-0.834,0.541-1.308,0.541s-0.947-0.181-1.309-0.542l-8.551-8.552c0,0,0.794-0.53,1.669-1.405
		C81.069,88.218,81.033,88.162,81.032,88.161 M75.026,92.62l9.239,9.24c1.049,1.049,2.442,1.626,3.925,1.626
		s2.876-0.577,3.924-1.625c2.164-2.164,2.165-5.686,0.001-7.849l-9.177-9.178C82.218,84.113,74.248,91.842,75.026,92.62z"/>
</g>
<line fill="none" stroke="#000000" stroke-width="3.7" stroke-linecap="round" stroke-linejoin="round" stroke-miterlimit="10" x1="41" y1="30.771" x2="73.607" y2="30.771"/>
<line fill="none" stroke="#000000" stroke-width="3.7" stroke-linecap="round" stroke-linejoin="round" stroke-miterlimit="10" x1="41" y1="47.438" x2="84.667" y2="47.438"/>
</svg>
