<?xml version="1.0" encoding="utf-8"?>
<!-- Generator: Adobe Illustrator 16.0.0, SVG Export Plug-In . SVG Version: 6.00 Build 0)  -->
<!DOCTYPE svg PUBLIC "-//W3C//DTD SVG 1.1//EN" "http://www.w3.org/Graphics/SVG/1.1/DTD/svg11.dtd">
<svg version="1.1" id="Capa_1" xmlns="http://www.w3.org/2000/svg" xmlns:xlink="http://www.w3.org/1999/xlink" x="0px" y="0px"
	 width="122.926px" height="121px" viewBox="0 0 122.926 121" enable-background="new 0 0 122.926 121" xml:space="preserve">
<rect x="-0.001" fill="none" width="122.927" height="121"/>
<circle fill="none" stroke="#000000" stroke-width="3" stroke-linecap="round" stroke-linejoin="round" stroke-miterlimit="10" cx="61.296" cy="53.438" r="5.482"/>
<rect x="49.344" y="67.51" fill="none" stroke="#000000" stroke-width="3" stroke-linecap="round" stroke-linejoin="round" stroke-miterlimit="10" width="11.953" height="32.611"/>
<rect x="12.59" y="61.765" fill="none" stroke="#000000" stroke-width="3" stroke-linecap="round" stroke-linejoin="round" stroke-miterlimit="10" width="24.801" height="5.745"/>
<rect x="14.613" y="67.51" fill="none" stroke="#000000" stroke-width="3" stroke-linecap="round" stroke-linejoin="round" stroke-miterlimit="10" width="22.777" height="32.611"/>
<rect x="21.209" y="75.211" fill="none" stroke="#000000" stroke-width="3" stroke-linecap="round" stroke-linejoin="round" stroke-miterlimit="10" width="9.584" height="5.7"/>
<rect x="21.209" y="86.46" fill="none" stroke="#000000" stroke-width="3" stroke-linecap="round" stroke-linejoin="round" stroke-miterlimit="10" width="9.584" height="5.7"/>
<polygon fill="none" stroke="#000000" stroke-width="3" stroke-linecap="round" stroke-linejoin="round" stroke-miterlimit="10" points="
	61.297,37.688 37.391,55.666 37.391,100.121 61.297,100.121 85.204,100.121 85.204,55.666 "/>
<polygon fill="none" stroke="#000000" stroke-width="3" stroke-linecap="round" stroke-linejoin="round" stroke-miterlimit="10" points="
	61.297,29.712 32.143,51.438 32.143,59.412 61.297,37.688 90.451,59.412 90.451,51.438 "/>
<rect x="61.297" y="67.51" fill="none" stroke="#000000" stroke-width="3" stroke-linecap="round" stroke-linejoin="round" stroke-miterlimit="10" width="11.953" height="32.611"/>
<rect x="85.204" y="61.765" fill="none" stroke="#000000" stroke-width="3" stroke-linecap="round" stroke-linejoin="round" stroke-miterlimit="10" width="24.8" height="5.745"/>
<rect x="85.204" y="67.51" fill="none" stroke="#000000" stroke-width="3" stroke-linecap="round" stroke-linejoin="round" stroke-miterlimit="10" width="22.776" height="32.611"/>
<rect x="91.801" y="75.211" fill="none" stroke="#000000" stroke-width="3" stroke-linecap="round" stroke-linejoin="round" stroke-miterlimit="10" width="9.583" height="5.7"/>
<rect x="91.801" y="86.46" fill="none" stroke="#000000" stroke-width="3" stroke-linecap="round" stroke-linejoin="round" stroke-miterlimit="10" width="9.583" height="5.7"/>
<polyline fill="none" stroke="#000000" stroke-width="3" stroke-linecap="round" stroke-linejoin="round" stroke-miterlimit="10" points="
	61.297,29.712 61.297,14.944 73.25,19.611 61.297,23.329 "/>
</svg>
